<?xml version="1.0" encoding="utf-8"?>
<!-- Generator: Adobe Illustrator 22.0.1, SVG Export Plug-In . SVG Version: 6.00 Build 0)  -->
<svg version="1.1" id="Layer_1" xmlns="http://www.w3.org/2000/svg" xmlns:xlink="http://www.w3.org/1999/xlink" x="0px" y="0px"
	 viewBox="0 0 278 227" style="enable-background:new 0 0 278 227;" xml:space="preserve">
<style type="text/css">
	.st0{clip-path:url(#SVGID_2_);fill:#FFFFFF;}
	
		.st1{clip-path:url(#SVGID_2_);fill:none;stroke:#FFFFFF;stroke-width:1.07;stroke-linecap:round;stroke-linejoin:round;stroke-miterlimit:10;}
	.st2{clip-path:url(#SVGID_4_);fill:#FFFFFF;}
	.st3{clip-path:url(#SVGID_4_);}
	.st4{fill:#FC8D62;}
	.st5{font-family:'MyriadPro-Regular';}
	.st6{font-size:3.94px;}
	.st7{fill:none;stroke:#FC8D62;stroke-width:0.71;stroke-linecap:round;stroke-linejoin:round;stroke-miterlimit:10;}
	.st8{fill:#8DA0CB;}
	.st9{fill:none;stroke:#8DA0CB;stroke-width:0.71;stroke-linecap:round;stroke-linejoin:round;stroke-miterlimit:10;}
	.st10{clip-path:url(#SVGID_4_);fill:none;stroke:#000000;stroke-width:1.6;stroke-linejoin:round;stroke-miterlimit:10;}
	.st11{font-family:'Helvetica-Bold';}
	.st12{font-size:11px;}
	.st13{fill:none;stroke:#000000;stroke-width:1.6;stroke-linejoin:round;stroke-miterlimit:10;}
	.st14{fill:#4D4D4D;}
	.st15{font-family:'Helvetica';}
	.st16{fill:none;stroke:#333333;stroke-width:1.07;stroke-linejoin:round;stroke-miterlimit:10;}
	.st17{fill:none;stroke:#000000;stroke-width:0.75;stroke-linecap:round;stroke-linejoin:round;stroke-miterlimit:10;}
	.st18{font-size:14px;}
	.st19{clip-path:url(#SVGID_6_);fill:none;stroke:#FFFFFF;stroke-width:0.53;stroke-linejoin:round;stroke-miterlimit:10;}
	.st20{clip-path:url(#SVGID_6_);fill:none;stroke:#FFFFFF;stroke-width:1.07;stroke-linejoin:round;stroke-miterlimit:10;}
	
		.st21{clip-path:url(#SVGID_6_);fill:none;stroke:#FC8D62;stroke-width:1.6;stroke-linecap:round;stroke-linejoin:round;stroke-miterlimit:10;}
	
		.st22{clip-path:url(#SVGID_6_);fill:none;stroke:#8DA0CB;stroke-width:1.6;stroke-linecap:round;stroke-linejoin:round;stroke-miterlimit:10;}
	
		.st23{clip-path:url(#SVGID_6_);fill:none;stroke:#000000;stroke-width:1.6;stroke-linecap:round;stroke-linejoin:round;stroke-miterlimit:10;}
	.st24{clip-path:url(#SVGID_6_);fill:none;stroke:#000000;stroke-width:1.6;stroke-linejoin:round;stroke-miterlimit:10;}
	.st25{font-size:12px;}
	.st26{fill:#FFFFFF;}
	.st27{fill:none;stroke:#FFFFFF;stroke-width:1.07;stroke-linecap:round;stroke-linejoin:round;stroke-miterlimit:10;}
	.st28{fill:none;stroke:#000000;stroke-width:1.6;stroke-linecap:round;stroke-miterlimit:10;}
	.st29{fill:none;stroke:#FC8D62;stroke-width:1.6;stroke-linecap:round;stroke-miterlimit:10;}
	.st30{fill:none;stroke:#8DA0CB;stroke-width:1.6;stroke-linecap:round;stroke-miterlimit:10;}
	.st31{font-size:9px;}
</style>
<g>
	<defs>
		<rect id="SVGID_1_" x="-2.9" y="0.7" width="280.9" height="226.3"/>
	</defs>
	<clipPath id="SVGID_2_">
		<use xlink:href="#SVGID_1_"  style="overflow:visible;"/>
	</clipPath>
	<rect x="-2.9" y="0.7" class="st0" width="280.9" height="226.3"/>
	<rect x="-2.9" y="0.7" class="st1" width="280.9" height="226.3"/>
</g>
<g>
	<defs>
		<rect id="SVGID_3_" x="62.4" y="7.9" width="129.7" height="129.7"/>
	</defs>
	<clipPath id="SVGID_4_">
		<use xlink:href="#SVGID_3_"  style="overflow:visible;"/>
	</clipPath>
	<rect x="62.4" y="7.9" class="st2" width="129.7" height="129.7"/>
	<g class="st3">
		<text transform="matrix(1 0 0 1 177.9404 71.3398)" class="st4 st5 st6">●</text>
	</g>
	<g class="st3">
		<text transform="matrix(1 0 0 1 177.9404 71.3398)" class="st7 st5 st6">●</text>
	</g>
	<g class="st3">
		<text transform="matrix(1 0 0 1 66.7295 74.1602)" class="st8 st5 st6">●</text>
	</g>
	<g class="st3">
		<text transform="matrix(1 0 0 1 66.7295 74.1602)" class="st9 st5 st6">●</text>
	</g>
	<g class="st3">
		<text transform="matrix(1 0 0 1 66.7295 74.1602)" class="st8 st5 st6">●</text>
	</g>
	<g class="st3">
		<text transform="matrix(1 0 0 1 66.7295 74.1602)" class="st9 st5 st6">●</text>
	</g>
	<g class="st3">
		<text transform="matrix(1 0 0 1 116.2197 75.2202)" class="st4 st5 st6">●</text>
	</g>
	<g class="st3">
		<text transform="matrix(1 0 0 1 116.2197 75.2202)" class="st7 st5 st6">●</text>
	</g>
	<g class="st3">
		<text transform="matrix(1 0 0 1 82.71 69.8901)" class="st4 st5 st6">●</text>
	</g>
	<g class="st3">
		<text transform="matrix(1 0 0 1 82.71 69.8901)" class="st7 st5 st6">●</text>
	</g>
	<g class="st3">
		<text transform="matrix(1 0 0 1 128.1499 81.3398)" class="st8 st5 st6">●</text>
	</g>
	<g class="st3">
		<text transform="matrix(1 0 0 1 128.1499 81.3398)" class="st9 st5 st6">●</text>
	</g>
	<g class="st3">
		<text transform="matrix(1 0 0 1 126.9805 66.0303)" class="st4 st5 st6">●</text>
	</g>
	<g class="st3">
		<text transform="matrix(1 0 0 1 126.9805 66.0303)" class="st7 st5 st6">●</text>
	</g>
	<g class="st3">
		<text transform="matrix(1 0 0 1 111.7002 50.1201)" class="st8 st5 st6">●</text>
	</g>
	<g class="st3">
		<text transform="matrix(1 0 0 1 111.7002 50.1201)" class="st9 st5 st6">●</text>
	</g>
	<g class="st3">
		<text transform="matrix(1 0 0 1 154.0596 91.7402)" class="st8 st5 st6">●</text>
	</g>
	<g class="st3">
		<text transform="matrix(1 0 0 1 154.0596 91.7402)" class="st9 st5 st6">●</text>
	</g>
	<g class="st3">
		<text transform="matrix(1 0 0 1 100.48 76.96)" class="st4 st5 st6">●</text>
	</g>
	<g class="st3">
		<text transform="matrix(1 0 0 1 100.48 76.96)" class="st7 st5 st6">●</text>
	</g>
	<g class="st3">
		<text transform="matrix(1 0 0 1 129.8999 78.4297)" class="st8 st5 st6">●</text>
	</g>
	<g class="st3">
		<text transform="matrix(1 0 0 1 129.8999 78.4297)" class="st9 st5 st6">●</text>
	</g>
	<g class="st3">
		<text transform="matrix(1 0 0 1 140.6602 68.3701)" class="st4 st5 st6">●</text>
	</g>
	<g class="st3">
		<text transform="matrix(1 0 0 1 140.6602 68.3701)" class="st7 st5 st6">●</text>
	</g>
	<g class="st3">
		<text transform="matrix(1 0 0 1 90.4297 76.9102)" class="st8 st5 st6">●</text>
	</g>
	<g class="st3">
		<text transform="matrix(1 0 0 1 90.4297 76.9102)" class="st9 st5 st6">●</text>
	</g>
	<g class="st3">
		<text transform="matrix(1 0 0 1 93.9302 65.3301)" class="st8 st5 st6">●</text>
	</g>
	<g class="st3">
		<text transform="matrix(1 0 0 1 93.9302 65.3301)" class="st9 st5 st6">●</text>
	</g>
	<g class="st3">
		<text transform="matrix(1 0 0 1 130.46 62.3604)" class="st8 st5 st6">●</text>
	</g>
	<g class="st3">
		<text transform="matrix(1 0 0 1 130.46 62.3604)" class="st9 st5 st6">●</text>
	</g>
	<g class="st3">
		<text transform="matrix(1 0 0 1 93.6602 63.1699)" class="st8 st5 st6">●</text>
	</g>
	<g class="st3">
		<text transform="matrix(1 0 0 1 93.6602 63.1699)" class="st9 st5 st6">●</text>
	</g>
	<g class="st3">
		<text transform="matrix(1 0 0 1 115.4102 68.3496)" class="st8 st5 st6">●</text>
	</g>
	<g class="st3">
		<text transform="matrix(1 0 0 1 115.4102 68.3496)" class="st9 st5 st6">●</text>
	</g>
	<g class="st3">
		<text transform="matrix(1 0 0 1 96.29 70.79)" class="st8 st5 st6">●</text>
	</g>
	<g class="st3">
		<text transform="matrix(1 0 0 1 96.29 70.79)" class="st9 st5 st6">●</text>
	</g>
	<g class="st3">
		<text transform="matrix(1 0 0 1 118.1499 59.7002)" class="st4 st5 st6">●</text>
	</g>
	<g class="st3">
		<text transform="matrix(1 0 0 1 118.1499 59.7002)" class="st7 st5 st6">●</text>
	</g>
	<g class="st3">
		<text transform="matrix(1 0 0 1 78.8096 71.1396)" class="st4 st5 st6">●</text>
	</g>
	<g class="st3">
		<text transform="matrix(1 0 0 1 78.8096 71.1396)" class="st7 st5 st6">●</text>
	</g>
	<g class="st3">
		<text transform="matrix(1 0 0 1 95.1699 77.75)" class="st8 st5 st6">●</text>
	</g>
	<g class="st3">
		<text transform="matrix(1 0 0 1 95.1699 77.75)" class="st9 st5 st6">●</text>
	</g>
	<g class="st3">
		<text transform="matrix(1 0 0 1 129.0098 75.3896)" class="st8 st5 st6">●</text>
	</g>
	<g class="st3">
		<text transform="matrix(1 0 0 1 129.0098 75.3896)" class="st9 st5 st6">●</text>
	</g>
	<g class="st3">
		<text transform="matrix(1 0 0 1 88.3096 68.7002)" class="st8 st5 st6">●</text>
	</g>
	<g class="st3">
		<text transform="matrix(1 0 0 1 88.3096 68.7002)" class="st9 st5 st6">●</text>
	</g>
	<g class="st3">
		<text transform="matrix(1 0 0 1 166.8799 64.2803)" class="st4 st5 st6">●</text>
	</g>
	<g class="st3">
		<text transform="matrix(1 0 0 1 166.8799 64.2803)" class="st7 st5 st6">●</text>
	</g>
	<g class="st3">
		<text transform="matrix(1 0 0 1 122.2998 80.1699)" class="st4 st5 st6">●</text>
	</g>
	<g class="st3">
		<text transform="matrix(1 0 0 1 122.2998 80.1699)" class="st7 st5 st6">●</text>
	</g>
	<g class="st3">
		<text transform="matrix(1 0 0 1 84.1401 70.6899)" class="st8 st5 st6">●</text>
	</g>
	<g class="st3">
		<text transform="matrix(1 0 0 1 84.1401 70.6899)" class="st9 st5 st6">●</text>
	</g>
	<g class="st3">
		<text transform="matrix(1 0 0 1 116.7402 67.7798)" class="st8 st5 st6">●</text>
	</g>
	<g class="st3">
		<text transform="matrix(1 0 0 1 116.7402 67.7798)" class="st9 st5 st6">●</text>
	</g>
	<g class="st3">
		<text transform="matrix(1 0 0 1 143.8799 79.3799)" class="st4 st5 st6">●</text>
	</g>
	<g class="st3">
		<text transform="matrix(1 0 0 1 143.8799 79.3799)" class="st7 st5 st6">●</text>
	</g>
	<g class="st3">
		<text transform="matrix(1 0 0 1 136.1504 84.3799)" class="st8 st5 st6">●</text>
	</g>
	<g class="st3">
		<text transform="matrix(1 0 0 1 136.1504 84.3799)" class="st9 st5 st6">●</text>
	</g>
	<g class="st3">
		<text transform="matrix(1 0 0 1 139.6699 66.2998)" class="st8 st5 st6">●</text>
	</g>
	<g class="st3">
		<text transform="matrix(1 0 0 1 139.6699 66.2998)" class="st9 st5 st6">●</text>
	</g>
	<g class="st3">
		<text transform="matrix(1 0 0 1 133.8301 74.1602)" class="st4 st5 st6">●</text>
	</g>
	<g class="st3">
		<text transform="matrix(1 0 0 1 133.8301 74.1602)" class="st7 st5 st6">●</text>
	</g>
	<g class="st3">
		<text transform="matrix(1 0 0 1 152.1299 79.4805)" class="st4 st5 st6">●</text>
	</g>
	<g class="st3">
		<text transform="matrix(1 0 0 1 152.1299 79.4805)" class="st7 st5 st6">●</text>
	</g>
	<g class="st3">
		<text transform="matrix(1 0 0 1 107.5601 66.7197)" class="st4 st5 st6">●</text>
	</g>
	<g class="st3">
		<text transform="matrix(1 0 0 1 107.5601 66.7197)" class="st7 st5 st6">●</text>
	</g>
	<g class="st3">
		<text transform="matrix(1 0 0 1 176.6299 74.1602)" class="st4 st5 st6">●</text>
	</g>
	<g class="st3">
		<text transform="matrix(1 0 0 1 176.6299 74.1602)" class="st7 st5 st6">●</text>
	</g>
	<g class="st3">
		<text transform="matrix(1 0 0 1 156.3604 64.0703)" class="st8 st5 st6">●</text>
	</g>
	<g class="st3">
		<text transform="matrix(1 0 0 1 156.3604 64.0703)" class="st9 st5 st6">●</text>
	</g>
	<g class="st3">
		<text transform="matrix(1 0 0 1 145.2002 18.8799)" class="st8 st5 st6">●</text>
	</g>
	<g class="st3">
		<text transform="matrix(1 0 0 1 145.2002 18.8799)" class="st9 st5 st6">●</text>
	</g>
	<g class="st3">
		<text transform="matrix(1 0 0 1 153.0703 19.1797)" class="st8 st5 st6">●</text>
	</g>
	<g class="st3">
		<text transform="matrix(1 0 0 1 153.0703 19.1797)" class="st9 st5 st6">●</text>
	</g>
	<g class="st3">
		<text transform="matrix(1 0 0 1 125.9199 65.5605)" class="st4 st5 st6">●</text>
	</g>
	<g class="st3">
		<text transform="matrix(1 0 0 1 125.9199 65.5605)" class="st7 st5 st6">●</text>
	</g>
	<g class="st3">
		<text transform="matrix(1 0 0 1 141.9199 68.3496)" class="st8 st5 st6">●</text>
	</g>
	<g class="st3">
		<text transform="matrix(1 0 0 1 141.9199 68.3496)" class="st9 st5 st6">●</text>
	</g>
	<g class="st3">
		<text transform="matrix(1 0 0 1 99.04 69.7705)" class="st8 st5 st6">●</text>
	</g>
	<g class="st3">
		<text transform="matrix(1 0 0 1 99.04 69.7705)" class="st9 st5 st6">●</text>
	</g>
	<g class="st3">
		<text transform="matrix(1 0 0 1 114.8799 63.6899)" class="st8 st5 st6">●</text>
	</g>
	<g class="st3">
		<text transform="matrix(1 0 0 1 114.8799 63.6899)" class="st9 st5 st6">●</text>
	</g>
	<g class="st3">
		<text transform="matrix(1 0 0 1 99.04 84.3799)" class="st8 st5 st6">●</text>
	</g>
	<g class="st3">
		<text transform="matrix(1 0 0 1 99.04 84.3799)" class="st9 st5 st6">●</text>
	</g>
	<g class="st3">
		<text transform="matrix(1 0 0 1 132.9805 78.1104)" class="st8 st5 st6">●</text>
	</g>
	<g class="st3">
		<text transform="matrix(1 0 0 1 132.9805 78.1104)" class="st9 st5 st6">●</text>
	</g>
	<g class="st3">
		<text transform="matrix(1 0 0 1 150.6895 54.9004)" class="st8 st5 st6">●</text>
	</g>
	<g class="st3">
		<text transform="matrix(1 0 0 1 150.6895 54.9004)" class="st9 st5 st6">●</text>
	</g>
	<g class="st3">
		<text transform="matrix(1 0 0 1 88.4399 70.0801)" class="st8 st5 st6">●</text>
	</g>
	<g class="st3">
		<text transform="matrix(1 0 0 1 88.4399 70.0801)" class="st9 st5 st6">●</text>
	</g>
	<g class="st3">
		<text transform="matrix(1 0 0 1 115.9702 60.1299)" class="st8 st5 st6">●</text>
	</g>
	<g class="st3">
		<text transform="matrix(1 0 0 1 115.9702 60.1299)" class="st9 st5 st6">●</text>
	</g>
	<g class="st3">
		<text transform="matrix(1 0 0 1 145.7305 56.8599)" class="st4 st5 st6">●</text>
	</g>
	<g class="st3">
		<text transform="matrix(1 0 0 1 145.7305 56.8599)" class="st7 st5 st6">●</text>
	</g>
	<g class="st3">
		<text transform="matrix(1 0 0 1 164.9697 93.2002)" class="st4 st5 st6">●</text>
	</g>
	<g class="st3">
		<text transform="matrix(1 0 0 1 164.9697 93.2002)" class="st7 st5 st6">●</text>
	</g>
	<g class="st3">
		<text transform="matrix(1 0 0 1 116.6797 67.7705)" class="st8 st5 st6">●</text>
	</g>
	<g class="st3">
		<text transform="matrix(1 0 0 1 116.6797 67.7705)" class="st9 st5 st6">●</text>
	</g>
	<g class="st3">
		<text transform="matrix(1 0 0 1 132.4102 77.8301)" class="st4 st5 st6">●</text>
	</g>
	<g class="st3">
		<text transform="matrix(1 0 0 1 132.4102 77.8301)" class="st7 st5 st6">●</text>
	</g>
	<g class="st3">
		<text transform="matrix(1 0 0 1 159.8301 62.5205)" class="st4 st5 st6">●</text>
	</g>
	<g class="st3">
		<text transform="matrix(1 0 0 1 159.8301 62.5205)" class="st7 st5 st6">●</text>
	</g>
	<g class="st3">
		<text transform="matrix(1 0 0 1 97.73 77.1699)" class="st4 st5 st6">●</text>
	</g>
	<g class="st3">
		<text transform="matrix(1 0 0 1 97.73 77.1699)" class="st7 st5 st6">●</text>
	</g>
	<g class="st3">
		<text transform="matrix(1 0 0 1 81.6699 72.0498)" class="st4 st5 st6">●</text>
	</g>
	<g class="st3">
		<text transform="matrix(1 0 0 1 81.6699 72.0498)" class="st7 st5 st6">●</text>
	</g>
	<g class="st3">
		<text transform="matrix(1 0 0 1 160.2998 73.1602)" class="st4 st5 st6">●</text>
	</g>
	<g class="st3">
		<text transform="matrix(1 0 0 1 160.2998 73.1602)" class="st7 st5 st6">●</text>
	</g>
	<g class="st3">
		<text transform="matrix(1 0 0 1 111.4399 74.1602)" class="st4 st5 st6">●</text>
	</g>
	<g class="st3">
		<text transform="matrix(1 0 0 1 111.4399 74.1602)" class="st7 st5 st6">●</text>
	</g>
	<g class="st3">
		<text transform="matrix(1 0 0 1 66.7295 74.1602)" class="st4 st5 st6">●</text>
	</g>
	<g class="st3">
		<text transform="matrix(1 0 0 1 66.7295 74.1602)" class="st7 st5 st6">●</text>
	</g>
	<g class="st3">
		<text transform="matrix(1 0 0 1 120.0801 66.9199)" class="st8 st5 st6">●</text>
	</g>
	<g class="st3">
		<text transform="matrix(1 0 0 1 120.0801 66.9199)" class="st9 st5 st6">●</text>
	</g>
	<g class="st3">
		<text transform="matrix(1 0 0 1 85.9399 71.6602)" class="st8 st5 st6">●</text>
	</g>
	<g class="st3">
		<text transform="matrix(1 0 0 1 85.9399 71.6602)" class="st9 st5 st6">●</text>
	</g>
	<g class="st3">
		<text transform="matrix(1 0 0 1 71.4702 71.1899)" class="st4 st5 st6">●</text>
	</g>
	<g class="st3">
		<text transform="matrix(1 0 0 1 71.4702 71.1899)" class="st7 st5 st6">●</text>
	</g>
	<g class="st3">
		<text transform="matrix(1 0 0 1 83.5098 71.5)" class="st8 st5 st6">●</text>
	</g>
	<g class="st3">
		<text transform="matrix(1 0 0 1 83.5098 71.5)" class="st9 st5 st6">●</text>
	</g>
	<g class="st3">
		<text transform="matrix(1 0 0 1 95.5303 75.3701)" class="st8 st5 st6">●</text>
	</g>
	<g class="st3">
		<text transform="matrix(1 0 0 1 95.5303 75.3701)" class="st9 st5 st6">●</text>
	</g>
	<g class="st3">
		<text transform="matrix(1 0 0 1 86.2598 73)" class="st8 st5 st6">●</text>
	</g>
	<g class="st3">
		<text transform="matrix(1 0 0 1 86.2598 73)" class="st9 st5 st6">●</text>
	</g>
	<g class="st3">
		<text transform="matrix(1 0 0 1 129.3198 88.9702)" class="st8 st5 st6">●</text>
	</g>
	<g class="st3">
		<text transform="matrix(1 0 0 1 129.3198 88.9702)" class="st9 st5 st6">●</text>
	</g>
	<g class="st3">
		<text transform="matrix(1 0 0 1 76.8101 70.3506)" class="st8 st5 st6">●</text>
	</g>
	<g class="st3">
		<text transform="matrix(1 0 0 1 76.8101 70.3506)" class="st9 st5 st6">●</text>
	</g>
	<g class="st3">
		<text transform="matrix(1 0 0 1 136.4004 66.2402)" class="st8 st5 st6">●</text>
	</g>
	<g class="st3">
		<text transform="matrix(1 0 0 1 136.4004 66.2402)" class="st9 st5 st6">●</text>
	</g>
	<g class="st3">
		<text transform="matrix(1 0 0 1 145.3203 74.1602)" class="st4 st5 st6">●</text>
	</g>
	<g class="st3">
		<text transform="matrix(1 0 0 1 145.3203 74.1602)" class="st7 st5 st6">●</text>
	</g>
	<g class="st3">
		<text transform="matrix(1 0 0 1 143.4102 74.1602)" class="st4 st5 st6">●</text>
	</g>
	<g class="st3">
		<text transform="matrix(1 0 0 1 143.4102 74.1602)" class="st7 st5 st6">●</text>
	</g>
	<g class="st3">
		<text transform="matrix(1 0 0 1 156.2998 83.4502)" class="st4 st5 st6">●</text>
	</g>
	<g class="st3">
		<text transform="matrix(1 0 0 1 156.2998 83.4502)" class="st7 st5 st6">●</text>
	</g>
	<g class="st3">
		<text transform="matrix(1 0 0 1 180.8301 74.1602)" class="st4 st5 st6">●</text>
	</g>
	<g class="st3">
		<text transform="matrix(1 0 0 1 180.8301 74.1602)" class="st7 st5 st6">●</text>
	</g>
	<g class="st3">
		<text transform="matrix(1 0 0 1 159.75 66.8101)" class="st4 st5 st6">●</text>
	</g>
	<g class="st3">
		<text transform="matrix(1 0 0 1 159.75 66.8101)" class="st7 st5 st6">●</text>
	</g>
	<g class="st3">
		<text transform="matrix(1 0 0 1 141.3105 74.1602)" class="st8 st5 st6">●</text>
	</g>
	<g class="st3">
		<text transform="matrix(1 0 0 1 141.3105 74.1602)" class="st9 st5 st6">●</text>
	</g>
	<g class="st3">
		<text transform="matrix(1 0 0 1 145.29 58.0698)" class="st8 st5 st6">●</text>
	</g>
	<g class="st3">
		<text transform="matrix(1 0 0 1 145.29 58.0698)" class="st9 st5 st6">●</text>
	</g>
	<g class="st3">
		<text transform="matrix(1 0 0 1 95.4102 62.4302)" class="st8 st5 st6">●</text>
	</g>
	<g class="st3">
		<text transform="matrix(1 0 0 1 95.4102 62.4302)" class="st9 st5 st6">●</text>
	</g>
	<g class="st3">
		<text transform="matrix(1 0 0 1 102.6797 67.1104)" class="st8 st5 st6">●</text>
	</g>
	<g class="st3">
		<text transform="matrix(1 0 0 1 102.6797 67.1104)" class="st9 st5 st6">●</text>
	</g>
	<g class="st3">
		<text transform="matrix(1 0 0 1 96.7202 77.6499)" class="st8 st5 st6">●</text>
	</g>
	<g class="st3">
		<text transform="matrix(1 0 0 1 96.7202 77.6499)" class="st9 st5 st6">●</text>
	</g>
	<g class="st3">
		<text transform="matrix(1 0 0 1 103.9302 77.5801)" class="st4 st5 st6">●</text>
	</g>
	<g class="st3">
		<text transform="matrix(1 0 0 1 103.9302 77.5801)" class="st7 st5 st6">●</text>
	</g>
	<g class="st3">
		<text transform="matrix(1 0 0 1 98.9502 69.1699)" class="st8 st5 st6">●</text>
	</g>
	<g class="st3">
		<text transform="matrix(1 0 0 1 98.9502 69.1699)" class="st9 st5 st6">●</text>
	</g>
	<g class="st3">
		<text transform="matrix(1 0 0 1 161.8301 87.3496)" class="st8 st5 st6">●</text>
	</g>
	<g class="st3">
		<text transform="matrix(1 0 0 1 161.8301 87.3496)" class="st9 st5 st6">●</text>
	</g>
	<g class="st3">
		<text transform="matrix(1 0 0 1 149.0898 58.0098)" class="st8 st5 st6">●</text>
	</g>
	<g class="st3">
		<text transform="matrix(1 0 0 1 149.0898 58.0098)" class="st9 st5 st6">●</text>
	</g>
	<g class="st3">
		<text transform="matrix(1 0 0 1 123.0996 80.9004)" class="st4 st5 st6">●</text>
	</g>
	<g class="st3">
		<text transform="matrix(1 0 0 1 123.0996 80.9004)" class="st7 st5 st6">●</text>
	</g>
	<g class="st3">
		<text transform="matrix(1 0 0 1 135.7998 67.1104)" class="st4 st5 st6">●</text>
	</g>
	<g class="st3">
		<text transform="matrix(1 0 0 1 135.7998 67.1104)" class="st7 st5 st6">●</text>
	</g>
	<g class="st3">
		<text transform="matrix(1 0 0 1 132.4004 82.5)" class="st4 st5 st6">●</text>
	</g>
	<g class="st3">
		<text transform="matrix(1 0 0 1 132.4004 82.5)" class="st7 st5 st6">●</text>
	</g>
	<g class="st3">
		<text transform="matrix(1 0 0 1 84.0098 70.6499)" class="st8 st5 st6">●</text>
	</g>
	<g class="st3">
		<text transform="matrix(1 0 0 1 84.0098 70.6499)" class="st9 st5 st6">●</text>
	</g>
	<g class="st3">
		<text transform="matrix(1 0 0 1 106.8496 71.2998)" class="st8 st5 st6">●</text>
	</g>
	<g class="st3">
		<text transform="matrix(1 0 0 1 106.8496 71.2998)" class="st9 st5 st6">●</text>
	</g>
	<g class="st3">
		<text transform="matrix(1 0 0 1 68.5298 73.6299)" class="st8 st5 st6">●</text>
	</g>
	<g class="st3">
		<text transform="matrix(1 0 0 1 68.5298 73.6299)" class="st9 st5 st6">●</text>
	</g>
	<g class="st3">
		<text transform="matrix(1 0 0 1 130.3599 58.9199)" class="st8 st5 st6">●</text>
	</g>
	<g class="st3">
		<text transform="matrix(1 0 0 1 130.3599 58.9199)" class="st9 st5 st6">●</text>
	</g>
	<g class="st3">
		<text transform="matrix(1 0 0 1 132.6797 80.98)" class="st8 st5 st6">●</text>
	</g>
	<g class="st3">
		<text transform="matrix(1 0 0 1 132.6797 80.98)" class="st9 st5 st6">●</text>
	</g>
	<g class="st3">
		<text transform="matrix(1 0 0 1 81.1797 76.7998)" class="st8 st5 st6">●</text>
	</g>
	<g class="st3">
		<text transform="matrix(1 0 0 1 81.1797 76.7998)" class="st9 st5 st6">●</text>
	</g>
	<g class="st3">
		<text transform="matrix(1 0 0 1 159.8105 63.9697)" class="st4 st5 st6">●</text>
	</g>
	<g class="st3">
		<text transform="matrix(1 0 0 1 159.8105 63.9697)" class="st7 st5 st6">●</text>
	</g>
	<g class="st3">
		<text transform="matrix(1 0 0 1 87.1299 77.6602)" class="st8 st5 st6">●</text>
	</g>
	<g class="st3">
		<text transform="matrix(1 0 0 1 87.1299 77.6602)" class="st9 st5 st6">●</text>
	</g>
	<g class="st3">
		<text transform="matrix(1 0 0 1 87.7002 79.7695)" class="st4 st5 st6">●</text>
	</g>
	<g class="st3">
		<text transform="matrix(1 0 0 1 87.7002 79.7695)" class="st7 st5 st6">●</text>
	</g>
	<g class="st3">
		<text transform="matrix(1 0 0 1 132.3398 74.1602)" class="st4 st5 st6">●</text>
	</g>
	<g class="st3">
		<text transform="matrix(1 0 0 1 132.3398 74.1602)" class="st7 st5 st6">●</text>
	</g>
	<g class="st3">
		<text transform="matrix(1 0 0 1 165.4199 100.54)" class="st4 st5 st6">●</text>
	</g>
	<g class="st3">
		<text transform="matrix(1 0 0 1 165.4199 100.54)" class="st7 st5 st6">●</text>
	</g>
	<g class="st3">
		<text transform="matrix(1 0 0 1 92.6699 69.0303)" class="st8 st5 st6">●</text>
	</g>
	<g class="st3">
		<text transform="matrix(1 0 0 1 92.6699 69.0303)" class="st9 st5 st6">●</text>
	</g>
	<g class="st3">
		<text transform="matrix(1 0 0 1 123.71 64.1899)" class="st8 st5 st6">●</text>
	</g>
	<g class="st3">
		<text transform="matrix(1 0 0 1 123.71 64.1899)" class="st9 st5 st6">●</text>
	</g>
	<g class="st3">
		<text transform="matrix(1 0 0 1 134.2998 66.0898)" class="st8 st5 st6">●</text>
	</g>
	<g class="st3">
		<text transform="matrix(1 0 0 1 134.2998 66.0898)" class="st9 st5 st6">●</text>
	</g>
	<g class="st3">
		<text transform="matrix(1 0 0 1 76.71 75.5996)" class="st8 st5 st6">●</text>
	</g>
	<g class="st3">
		<text transform="matrix(1 0 0 1 76.71 75.5996)" class="st9 st5 st6">●</text>
	</g>
	<g class="st3">
		<text transform="matrix(1 0 0 1 121.1602 66.8301)" class="st8 st5 st6">●</text>
	</g>
	<g class="st3">
		<text transform="matrix(1 0 0 1 121.1602 66.8301)" class="st9 st5 st6">●</text>
	</g>
	<g class="st3">
		<text transform="matrix(1 0 0 1 120.2798 68.2998)" class="st8 st5 st6">●</text>
	</g>
	<g class="st3">
		<text transform="matrix(1 0 0 1 120.2798 68.2998)" class="st9 st5 st6">●</text>
	</g>
	<g class="st3">
		<text transform="matrix(1 0 0 1 93.3301 68.4902)" class="st8 st5 st6">●</text>
	</g>
	<g class="st3">
		<text transform="matrix(1 0 0 1 93.3301 68.4902)" class="st9 st5 st6">●</text>
	</g>
	<g class="st3">
		<text transform="matrix(1 0 0 1 152.8203 68)" class="st8 st5 st6">●</text>
	</g>
	<g class="st3">
		<text transform="matrix(1 0 0 1 152.8203 68)" class="st9 st5 st6">●</text>
	</g>
	<g class="st3">
		<text transform="matrix(1 0 0 1 155.5596 68.2603)" class="st8 st5 st6">●</text>
	</g>
	<g class="st3">
		<text transform="matrix(1 0 0 1 155.5596 68.2603)" class="st9 st5 st6">●</text>
	</g>
	<g class="st3">
		<text transform="matrix(1 0 0 1 151.9297 77.3398)" class="st8 st5 st6">●</text>
	</g>
	<g class="st3">
		<text transform="matrix(1 0 0 1 151.9297 77.3398)" class="st9 st5 st6">●</text>
	</g>
	<g class="st3">
		<text transform="matrix(1 0 0 1 97.4902 80.75)" class="st8 st5 st6">●</text>
	</g>
	<g class="st3">
		<text transform="matrix(1 0 0 1 97.4902 80.75)" class="st9 st5 st6">●</text>
	</g>
	<line class="st10" x1="62.4" y1="72.8" x2="192.1" y2="72.8"/>
	<g class="st3">
		<text transform="matrix(1 0 0 1 133.46 47.2598)" class="st11 st12">RerF better</text>
	</g>
	<g class="st3">
		<text transform="matrix(1 0 0 1 68.29 106.23)" class="st11 st12">p = 1.2e−03</text>
	</g>
	<g class="st3">
		<text transform="matrix(1 0 0 1 68.29 116.0601)" class="st4 st11 st12">p = 3.4e−01</text>
	</g>
	<g class="st3">
		<text transform="matrix(1 0 0 1 68.29 125.8901)" class="st8 st11 st12">p = 3.1e−04</text>
	</g>
</g>
<line class="st13" x1="62.4" y1="137.7" x2="62.4" y2="7.9"/>
<text transform="matrix(1 0 0 1 35.75 135.7202)" class="st14 st15 st12">−1.0</text>
<text transform="matrix(1 0 0 1 35.75 106.23)" class="st14 st15 st12">−0.5</text>
<text transform="matrix(1 0 0 1 42.1699 76.7402)" class="st14 st15 st12">0.0</text>
<text transform="matrix(1 0 0 1 42.1699 47.2598)" class="st14 st15 st12">0.5</text>
<text transform="matrix(1 0 0 1 42.1699 17.77)" class="st14 st15 st12">1.0</text>
<line class="st16" x1="59.7" y1="131.8" x2="62.4" y2="131.8"/>
<line class="st16" x1="59.7" y1="102.3" x2="62.4" y2="102.3"/>
<line class="st16" x1="59.7" y1="72.8" x2="62.4" y2="72.8"/>
<line class="st16" x1="59.7" y1="43.3" x2="62.4" y2="43.3"/>
<line class="st16" x1="59.7" y1="13.8" x2="62.4" y2="13.8"/>
<line class="st13" x1="62.4" y1="137.7" x2="192.1" y2="137.7"/>
<line class="st16" x1="68.3" y1="140.4" x2="68.3" y2="137.7"/>
<line class="st16" x1="97.8" y1="140.4" x2="97.8" y2="137.7"/>
<line class="st16" x1="127.3" y1="140.4" x2="127.3" y2="137.7"/>
<line class="st16" x1="156.8" y1="140.4" x2="156.8" y2="137.7"/>
<line class="st16" x1="186.2" y1="140.4" x2="186.2" y2="137.7"/>
<text transform="matrix(1 0 0 1 57.5898 150.5)" class="st14 st15 st12">0.00</text>
<text transform="matrix(1 0 0 1 87.0801 150.5)" class="st14 st15 st12">0.25</text>
<text transform="matrix(1 0 0 1 116.5601 150.5)" class="st14 st15 st12">0.50</text>
<text transform="matrix(1 0 0 1 146.0498 150.5)" class="st14 st15 st12">0.75</text>
<text transform="matrix(1 0 0 1 175.54 150.5)" class="st14 st15 st12">1.00</text>
<polyline class="st17" points="87.9,165 89.7,164 91.5,169.2 93.9,156 166,156 "/>
<text transform="matrix(1 0 0 1 95.3599 168.96)" class="st15 st18">Mean Error</text>
<polyline class="st17" points="25.9,133.8 24.9,132 30.1,130.1 16.8,127.7 16.8,12.5 "/>
<text transform="matrix(-6.123234e-17 -1 1 -6.123234e-17 29.9198 126.2803)"><tspan x="0" y="0" class="st15 st18">Dif</tspan><tspan x="17.1" y="0" class="st15 st18">f</tspan><tspan x="20.6" y="0" class="st15 st18">erence in Error</tspan></text>
<g>
	<defs>
		<rect id="SVGID_5_" x="205.6" y="7.2" width="43.8" height="131.3"/>
	</defs>
	<clipPath id="SVGID_6_">
		<use xlink:href="#SVGID_5_"  style="overflow:visible;"/>
	</clipPath>
	<line class="st19" x1="205.6" y1="117.6" x2="249.4" y2="117.6"/>
	<line class="st19" x1="205.6" y1="87.8" x2="249.4" y2="87.8"/>
	<line class="st19" x1="205.6" y1="57.9" x2="249.4" y2="57.9"/>
	<line class="st19" x1="205.6" y1="28.1" x2="249.4" y2="28.1"/>
	<line class="st19" x1="213.8" y1="138.5" x2="213.8" y2="7.2"/>
	<line class="st19" x1="226.1" y1="138.5" x2="226.1" y2="7.2"/>
	<line class="st19" x1="238.4" y1="138.5" x2="238.4" y2="7.2"/>
	<line class="st20" x1="205.6" y1="132.5" x2="249.4" y2="132.5"/>
	<line class="st20" x1="205.6" y1="102.7" x2="249.4" y2="102.7"/>
	<line class="st20" x1="205.6" y1="72.9" x2="249.4" y2="72.9"/>
	<line class="st20" x1="205.6" y1="43" x2="249.4" y2="43"/>
	<line class="st20" x1="205.6" y1="13.2" x2="249.4" y2="13.2"/>
	<line class="st20" x1="207.6" y1="138.5" x2="207.6" y2="7.2"/>
	<line class="st20" x1="219.9" y1="138.5" x2="219.9" y2="7.2"/>
	<line class="st20" x1="232.2" y1="138.5" x2="232.2" y2="7.2"/>
	<line class="st20" x1="244.5" y1="138.5" x2="244.5" y2="7.2"/>
	<polyline class="st21" points="207.6,132.5 207.6,132.3 207.6,132.1 207.6,131.8 207.6,131.6 207.6,131.4 207.6,131.1 207.6,130.9 
		207.6,130.6 207.6,130.4 207.6,130.2 207.6,130 207.6,129.7 207.6,129.5 207.6,129.2 207.6,129 207.6,128.8 207.6,128.5 
		207.6,128.3 207.6,128.1 207.6,127.9 207.6,127.6 207.6,127.4 207.6,127.1 207.6,126.9 207.6,126.7 207.6,126.5 207.6,126.2 
		207.6,126 207.6,125.8 207.6,125.5 207.6,125.3 207.6,125 207.6,124.8 207.6,124.6 207.6,124.4 207.6,124.1 207.6,123.9 
		207.6,123.6 207.6,123.4 207.6,123.2 207.6,123 207.6,122.7 207.6,122.5 207.6,122.2 207.6,122 207.6,121.8 207.6,121.5 
		207.6,121.3 207.6,121.1 207.6,120.8 207.6,120.6 207.6,120.4 207.6,120.1 207.6,119.9 207.6,119.7 207.6,119.4 207.6,119.2 
		207.6,119 207.6,118.7 207.6,118.5 207.6,118.3 207.6,118 207.6,117.8 207.6,117.6 207.6,117.3 207.6,117.1 207.6,116.9 
		207.6,116.6 207.6,116.4 207.6,116.2 207.6,115.9 207.6,115.7 207.6,115.5 207.6,115.2 207.6,115 207.6,114.8 207.6,114.5 
		207.6,114.3 207.6,114.1 207.6,113.8 207.6,113.6 207.6,113.4 207.6,113.1 207.6,112.9 207.6,112.7 207.6,112.4 207.6,112.2 
		207.6,112 207.6,111.7 207.6,111.5 207.6,111.3 207.6,111 207.6,110.8 207.6,110.6 207.6,110.3 207.6,110.1 207.7,109.9 
		207.7,109.6 207.7,109.4 207.7,109.2 207.7,108.9 207.7,108.7 207.7,108.5 207.7,108.2 207.7,108 207.7,107.8 207.8,107.5 
		207.8,107.3 207.8,107.1 207.8,106.8 207.9,106.6 207.9,106.4 207.9,106.1 208,105.9 208,105.7 208.1,105.4 208.1,105.2 208.2,105 
		208.3,104.7 208.4,104.5 208.4,104.3 208.5,104 208.6,103.8 208.7,103.6 208.8,103.3 208.9,103.1 209,102.9 209.1,102.6 
		209.2,102.4 209.3,102.2 209.4,101.9 209.5,101.7 209.6,101.5 209.6,101.2 209.7,101 209.8,100.8 209.8,100.5 209.9,100.3 
		209.9,100.1 210,99.8 210,99.6 210.1,99.4 210.1,99.1 210.1,98.9 210.1,98.7 210.1,98.4 210.1,98.2 210.1,98 210.1,97.7 
		210.1,97.5 210.1,97.2 210.1,97 210.1,96.8 210.1,96.5 210.1,96.3 210.1,96.1 210.2,95.9 210.2,95.6 210.2,95.4 210.3,95.1 
		210.3,94.9 210.4,94.7 210.4,94.5 210.5,94.2 210.6,94 210.6,93.8 210.7,93.5 210.8,93.3 210.9,93 211,92.8 211,92.6 211.1,92.4 
		211.2,92.1 211.3,91.9 211.3,91.6 211.4,91.4 211.4,91.2 211.5,91 211.5,90.7 211.6,90.5 211.6,90.2 211.6,90 211.7,89.8 
		211.7,89.5 211.7,89.3 211.8,89.1 211.8,88.9 211.8,88.6 211.8,88.4 211.9,88.1 211.9,87.9 212,87.7 212,87.4 212.1,87.2 212.2,87 
		212.3,86.7 212.5,86.5 212.7,86.3 212.9,86 213.1,85.8 213.3,85.6 213.6,85.3 213.9,85.1 214.3,84.9 214.7,84.6 215.1,84.4 
		215.6,84.2 216.1,83.9 216.6,83.7 217.2,83.5 217.8,83.2 218.4,83 219.1,82.8 219.8,82.5 220.5,82.3 221.2,82.1 222,81.8 
		222.8,81.6 223.6,81.4 224.4,81.1 225.2,80.9 226,80.7 226.9,80.4 227.7,80.2 228.5,80 229.4,79.7 230.2,79.5 231,79.3 231.9,79 
		232.7,78.8 233.5,78.6 234.3,78.3 235.1,78.1 235.8,77.9 236.6,77.6 237.3,77.4 238.1,77.2 238.8,76.9 239.5,76.7 240.2,76.5 
		240.8,76.2 241.5,76 242.1,75.8 242.6,75.5 243.2,75.3 243.7,75.1 244.1,74.8 244.6,74.6 244.9,74.4 245.2,74.1 245.5,73.9 
		245.7,73.7 245.8,73.4 245.9,73.2 245.9,73 245.9,72.7 245.7,72.5 245.5,72.3 245.3,72 245,71.8 244.7,71.6 244.2,71.3 243.8,71.1 
		243.3,70.9 242.8,70.6 242.2,70.4 241.6,70.2 241.1,69.9 240.4,69.7 239.8,69.5 239.2,69.2 238.6,69 238,68.8 237.4,68.5 
		236.9,68.3 236.3,68.1 235.8,67.8 235.3,67.6 234.8,67.4 234.4,67.1 233.9,66.9 233.5,66.7 233.1,66.4 232.7,66.2 232.3,66 
		231.9,65.7 231.5,65.5 231.1,65.2 230.7,65 230.3,64.8 229.9,64.5 229.4,64.3 229,64.1 228.5,63.8 228,63.6 227.6,63.4 227,63.2 
		226.5,62.9 226,62.7 225.4,62.5 224.9,62.2 224.3,62 223.8,61.8 223.2,61.5 222.6,61.3 222.1,61 221.5,60.8 220.9,60.6 220.4,60.3 
		219.9,60.1 219.3,59.9 218.8,59.7 218.4,59.4 217.9,59.2 217.4,59 217,58.7 216.6,58.5 216.2,58.2 215.8,58 215.5,57.8 215.1,57.5 
		214.8,57.3 214.5,57.1 214.2,56.8 213.9,56.6 213.6,56.4 213.3,56.2 213,55.9 212.8,55.7 212.5,55.4 212.3,55.2 212,55 211.8,54.7 
		211.6,54.5 211.3,54.3 211.1,54 210.9,53.8 210.7,53.6 210.5,53.3 210.3,53.1 210.1,52.9 209.9,52.6 209.7,52.4 209.6,52.2 
		209.4,51.9 209.2,51.7 209.1,51.5 208.9,51.2 208.8,51 208.7,50.8 208.6,50.5 208.5,50.3 208.4,50.1 208.3,49.8 208.2,49.6 
		208.1,49.4 208.1,49.1 208,48.9 208,48.7 207.9,48.4 207.9,48.2 207.8,48 207.8,47.7 207.8,47.5 207.8,47.3 207.7,47 207.7,46.8 
		207.7,46.6 207.7,46.3 207.7,46.1 207.7,45.9 207.7,45.6 207.7,45.4 207.7,45.2 207.6,44.9 207.6,44.7 207.6,44.5 207.6,44.2 
		207.6,44 207.6,43.8 207.6,43.5 207.6,43.3 207.6,43.1 207.6,42.8 207.6,42.6 207.6,42.4 207.6,42.1 207.6,41.9 207.6,41.7 
		207.6,41.4 207.6,41.2 207.6,41 207.6,40.7 207.6,40.5 207.6,40.3 207.6,40 207.6,39.8 207.6,39.6 207.6,39.3 207.6,39.1 
		207.6,38.9 207.6,38.6 207.6,38.4 207.6,38.2 207.6,37.9 207.6,37.7 207.6,37.5 207.6,37.2 207.6,37 207.6,36.8 207.6,36.5 
		207.6,36.3 207.6,36.1 207.6,35.8 207.6,35.6 207.6,35.4 207.6,35.1 207.6,34.9 207.6,34.7 207.6,34.4 207.6,34.2 207.6,34 
		207.6,33.7 207.6,33.5 207.6,33.3 207.6,33 207.6,32.8 207.6,32.5 207.6,32.3 207.6,32.1 207.6,31.8 207.6,31.6 207.6,31.4 
		207.6,31.2 207.6,30.9 207.6,30.7 207.6,30.5 207.6,30.2 207.6,30 207.6,29.8 207.6,29.5 207.6,29.3 207.6,29 207.6,28.8 
		207.6,28.6 207.6,28.3 207.6,28.1 207.6,27.9 207.6,27.7 207.6,27.4 207.6,27.2 207.6,27 207.6,26.7 207.6,26.5 207.6,26.2 
		207.6,26 207.6,25.8 207.6,25.5 207.6,25.3 207.6,25.1 207.6,24.8 207.6,24.6 207.6,24.4 207.6,24.2 207.6,23.9 207.6,23.7 
		207.6,23.4 207.6,23.2 207.6,23 207.6,22.7 207.6,22.5 207.6,22.3 207.6,22 207.6,21.8 207.6,21.6 207.6,21.3 207.6,21.1 
		207.6,20.9 207.6,20.6 207.6,20.4 207.6,20.2 207.6,19.9 207.6,19.7 207.6,19.5 207.6,19.2 207.6,19 207.6,18.8 207.6,18.5 
		207.6,18.3 207.6,18.1 207.6,17.8 207.6,17.6 207.6,17.4 207.6,17.1 207.6,16.9 207.6,16.7 207.6,16.4 207.6,16.2 207.6,16 
		207.6,15.7 207.6,15.5 207.6,15.3 207.6,15 207.6,14.8 207.6,14.6 207.6,14.3 207.6,14.1 207.6,13.9 207.6,13.6 207.6,13.4 
		207.6,13.2 207.6,13.4 207.6,13.6 207.6,13.9 207.6,14.1 207.6,14.3 207.6,14.6 207.6,14.8 207.6,15 207.6,15.3 207.6,15.5 
		207.6,15.7 207.6,16 207.6,16.2 207.6,16.4 207.6,16.7 207.6,16.9 207.6,17.1 207.6,17.4 207.6,17.6 207.6,17.8 207.6,18.1 
		207.6,18.3 207.6,18.5 207.6,18.8 207.6,19 207.6,19.2 207.6,19.5 207.6,19.7 207.6,19.9 207.6,20.2 207.6,20.4 207.6,20.6 
		207.6,20.9 207.6,21.1 207.6,21.3 207.6,21.6 207.6,21.8 207.6,22 207.6,22.3 207.6,22.5 207.6,22.7 207.6,23 207.6,23.2 
		207.6,23.4 207.6,23.7 207.6,23.9 207.6,24.2 207.6,24.4 207.6,24.6 207.6,24.8 207.6,25.1 207.6,25.3 207.6,25.5 207.6,25.8 
		207.6,26 207.6,26.2 207.6,26.5 207.6,26.7 207.6,27 207.6,27.2 207.6,27.4 207.6,27.7 207.6,27.9 207.6,28.1 207.6,28.3 
		207.6,28.6 207.6,28.8 207.6,29 207.6,29.3 207.6,29.5 207.6,29.8 207.6,30 207.6,30.2 207.6,30.5 207.6,30.7 207.6,30.9 
		207.6,31.2 207.6,31.4 207.6,31.6 207.6,31.8 207.6,32.1 207.6,32.3 207.6,32.5 207.6,32.8 207.6,33 207.6,33.3 207.6,33.5 
		207.6,33.7 207.6,34 207.6,34.2 207.6,34.4 207.6,34.7 207.6,34.9 207.6,35.1 207.6,35.4 207.6,35.6 207.6,35.8 207.6,36.1 
		207.6,36.3 207.6,36.5 207.6,36.8 207.6,37 207.6,37.2 207.6,37.5 207.6,37.7 207.6,37.9 207.6,38.2 207.6,38.4 207.6,38.6 
		207.6,38.9 207.6,39.1 207.6,39.3 207.6,39.6 207.6,39.8 207.6,40 207.6,40.3 207.6,40.5 207.6,40.7 207.6,41 207.6,41.2 
		207.6,41.4 207.6,41.7 207.6,41.9 207.6,42.1 207.6,42.4 207.6,42.6 207.6,42.8 207.6,43.1 207.6,43.3 207.6,43.5 207.6,43.8 
		207.6,44 207.6,44.2 207.6,44.5 207.6,44.7 207.6,44.9 207.6,45.2 207.6,45.4 207.6,45.6 207.6,45.9 207.6,46.1 207.6,46.3 
		207.6,46.6 207.6,46.8 207.6,47 207.6,47.3 207.6,47.5 207.6,47.7 207.6,48 207.6,48.2 207.6,48.4 207.6,48.7 207.6,48.9 
		207.6,49.1 207.6,49.4 207.6,49.6 207.6,49.8 207.6,50.1 207.6,50.3 207.6,50.5 207.6,50.8 207.6,51 207.6,51.2 207.6,51.5 
		207.6,51.7 207.6,51.9 207.6,52.2 207.6,52.4 207.6,52.6 207.6,52.9 207.6,53.1 207.6,53.3 207.6,53.6 207.6,53.8 207.6,54 
		207.6,54.3 207.6,54.5 207.6,54.7 207.6,55 207.6,55.2 207.6,55.4 207.6,55.7 207.6,55.9 207.6,56.2 207.6,56.4 207.6,56.6 
		207.6,56.8 207.6,57.1 207.6,57.3 207.6,57.5 207.6,57.8 207.6,58 207.6,58.2 207.6,58.5 207.6,58.7 207.6,59 207.6,59.2 
		207.6,59.4 207.6,59.7 207.6,59.9 207.6,60.1 207.6,60.3 207.6,60.6 207.6,60.8 207.6,61 207.6,61.3 207.6,61.5 207.6,61.8 
		207.6,62 207.6,62.2 207.6,62.5 207.6,62.7 207.6,62.9 207.6,63.2 207.6,63.4 207.6,63.6 207.6,63.8 207.6,64.1 207.6,64.3 
		207.6,64.5 207.6,64.8 207.6,65 207.6,65.2 207.6,65.5 207.6,65.7 207.6,66 207.6,66.2 207.6,66.4 207.6,66.7 207.6,66.9 
		207.6,67.1 207.6,67.4 207.6,67.6 207.6,67.8 207.6,68.1 207.6,68.3 207.6,68.5 207.6,68.8 207.6,69 207.6,69.2 207.6,69.5 
		207.6,69.7 207.6,69.9 207.6,70.2 207.6,70.4 207.6,70.6 207.6,70.9 207.6,71.1 207.6,71.3 207.6,71.6 207.6,71.8 207.6,72 
		207.6,72.3 207.6,72.5 207.6,72.7 207.6,73 207.6,73.2 207.6,73.4 207.6,73.7 207.6,73.9 207.6,74.1 207.6,74.4 207.6,74.6 
		207.6,74.8 207.6,75.1 207.6,75.3 207.6,75.5 207.6,75.8 207.6,76 207.6,76.2 207.6,76.5 207.6,76.7 207.6,76.9 207.6,77.2 
		207.6,77.4 207.6,77.6 207.6,77.9 207.6,78.1 207.6,78.3 207.6,78.6 207.6,78.8 207.6,79 207.6,79.3 207.6,79.5 207.6,79.7 
		207.6,80 207.6,80.2 207.6,80.4 207.6,80.7 207.6,80.9 207.6,81.1 207.6,81.4 207.6,81.6 207.6,81.8 207.6,82.1 207.6,82.3 
		207.6,82.5 207.6,82.8 207.6,83 207.6,83.2 207.6,83.5 207.6,83.7 207.6,83.9 207.6,84.2 207.6,84.4 207.6,84.6 207.6,84.9 
		207.6,85.1 207.6,85.3 207.6,85.6 207.6,85.8 207.6,86 207.6,86.3 207.6,86.5 207.6,86.7 207.6,87 207.6,87.2 207.6,87.4 
		207.6,87.7 207.6,87.9 207.6,88.1 207.6,88.4 207.6,88.6 207.6,88.9 207.6,89.1 207.6,89.3 207.6,89.5 207.6,89.8 207.6,90 
		207.6,90.2 207.6,90.5 207.6,90.7 207.6,91 207.6,91.2 207.6,91.4 207.6,91.6 207.6,91.9 207.6,92.1 207.6,92.4 207.6,92.6 
		207.6,92.8 207.6,93 207.6,93.3 207.6,93.5 207.6,93.8 207.6,94 207.6,94.2 207.6,94.5 207.6,94.7 207.6,94.9 207.6,95.1 
		207.6,95.4 207.6,95.6 207.6,95.9 207.6,96.1 207.6,96.3 207.6,96.5 207.6,96.8 207.6,97 207.6,97.2 207.6,97.5 207.6,97.7 
		207.6,98 207.6,98.2 207.6,98.4 207.6,98.7 207.6,98.9 207.6,99.1 207.6,99.4 207.6,99.6 207.6,99.8 207.6,100.1 207.6,100.3 
		207.6,100.5 207.6,100.8 207.6,101 207.6,101.2 207.6,101.5 207.6,101.7 207.6,101.9 207.6,102.2 207.6,102.4 207.6,102.6 
		207.6,102.9 207.6,103.1 207.6,103.3 207.6,103.6 207.6,103.8 207.6,104 207.6,104.3 207.6,104.5 207.6,104.7 207.6,105 
		207.6,105.2 207.6,105.4 207.6,105.7 207.6,105.9 207.6,106.1 207.6,106.4 207.6,106.6 207.6,106.8 207.6,107.1 207.6,107.3 
		207.6,107.5 207.6,107.8 207.6,108 207.6,108.2 207.6,108.5 207.6,108.7 207.6,108.9 207.6,109.2 207.6,109.4 207.6,109.6 
		207.6,109.9 207.6,110.1 207.6,110.3 207.6,110.6 207.6,110.8 207.6,111 207.6,111.3 207.6,111.5 207.6,111.7 207.6,112 
		207.6,112.2 207.6,112.4 207.6,112.7 207.6,112.9 207.6,113.1 207.6,113.4 207.6,113.6 207.6,113.8 207.6,114.1 207.6,114.3 
		207.6,114.5 207.6,114.8 207.6,115 207.6,115.2 207.6,115.5 207.6,115.7 207.6,115.9 207.6,116.2 207.6,116.4 207.6,116.6 
		207.6,116.9 207.6,117.1 207.6,117.3 207.6,117.6 207.6,117.8 207.6,118 207.6,118.3 207.6,118.5 207.6,118.7 207.6,119 
		207.6,119.2 207.6,119.4 207.6,119.7 207.6,119.9 207.6,120.1 207.6,120.4 207.6,120.6 207.6,120.8 207.6,121.1 207.6,121.3 
		207.6,121.5 207.6,121.8 207.6,122 207.6,122.2 207.6,122.5 207.6,122.7 207.6,123 207.6,123.2 207.6,123.4 207.6,123.6 
		207.6,123.9 207.6,124.1 207.6,124.4 207.6,124.6 207.6,124.8 207.6,125 207.6,125.3 207.6,125.5 207.6,125.8 207.6,126 
		207.6,126.2 207.6,126.5 207.6,126.7 207.6,126.9 207.6,127.1 207.6,127.4 207.6,127.6 207.6,127.9 207.6,128.1 207.6,128.3 
		207.6,128.5 207.6,128.8 207.6,129 207.6,129.2 207.6,129.5 207.6,129.7 207.6,130 207.6,130.2 207.6,130.4 207.6,130.6 
		207.6,130.9 207.6,131.1 207.6,131.4 207.6,131.6 207.6,131.8 207.6,132.1 207.6,132.3 207.6,132.5 	"/>
	<polyline class="st22" points="207.6,132.5 207.6,132.3 207.6,132.1 207.6,131.8 207.6,131.6 207.6,131.4 207.6,131.1 207.6,130.9 
		207.6,130.6 207.6,130.4 207.6,130.2 207.6,130 207.6,129.7 207.6,129.5 207.6,129.2 207.6,129 207.6,128.8 207.6,128.5 
		207.6,128.3 207.6,128.1 207.6,127.9 207.6,127.6 207.6,127.4 207.6,127.1 207.6,126.9 207.6,126.7 207.6,126.5 207.6,126.2 
		207.6,126 207.6,125.8 207.6,125.5 207.6,125.3 207.6,125 207.6,124.8 207.6,124.6 207.6,124.4 207.6,124.1 207.6,123.9 
		207.6,123.6 207.6,123.4 207.6,123.2 207.6,123 207.6,122.7 207.6,122.5 207.6,122.2 207.6,122 207.6,121.8 207.6,121.5 
		207.6,121.3 207.6,121.1 207.6,120.8 207.6,120.6 207.6,120.4 207.6,120.1 207.6,119.9 207.6,119.7 207.6,119.4 207.6,119.2 
		207.6,119 207.6,118.7 207.6,118.5 207.6,118.3 207.6,118 207.6,117.8 207.6,117.6 207.6,117.3 207.6,117.1 207.6,116.9 
		207.6,116.6 207.6,116.4 207.6,116.2 207.6,115.9 207.6,115.7 207.6,115.5 207.6,115.2 207.6,115 207.6,114.8 207.6,114.5 
		207.6,114.3 207.6,114.1 207.6,113.8 207.6,113.6 207.6,113.4 207.6,113.1 207.6,112.9 207.6,112.7 207.6,112.4 207.6,112.2 
		207.6,112 207.6,111.7 207.6,111.5 207.6,111.3 207.6,111 207.6,110.8 207.6,110.6 207.6,110.3 207.6,110.1 207.6,109.9 
		207.6,109.6 207.6,109.4 207.6,109.2 207.6,108.9 207.6,108.7 207.6,108.5 207.6,108.2 207.6,108 207.6,107.8 207.6,107.5 
		207.6,107.3 207.6,107.1 207.6,106.8 207.6,106.6 207.6,106.4 207.6,106.1 207.6,105.9 207.6,105.7 207.6,105.4 207.6,105.2 
		207.6,105 207.6,104.7 207.6,104.5 207.6,104.3 207.6,104 207.6,103.8 207.6,103.6 207.6,103.3 207.6,103.1 207.6,102.9 
		207.6,102.6 207.6,102.4 207.6,102.2 207.6,101.9 207.6,101.7 207.6,101.5 207.6,101.2 207.6,101 207.6,100.8 207.6,100.5 
		207.6,100.3 207.6,100.1 207.6,99.8 207.6,99.6 207.6,99.4 207.6,99.1 207.7,98.9 207.7,98.7 207.7,98.4 207.7,98.2 207.7,98 
		207.7,97.7 207.7,97.5 207.7,97.2 207.8,97 207.8,96.8 207.8,96.5 207.9,96.3 207.9,96.1 207.9,95.9 208,95.6 208.1,95.4 
		208.1,95.1 208.2,94.9 208.3,94.7 208.4,94.5 208.5,94.2 208.6,94 208.7,93.8 208.8,93.5 209,93.3 209.1,93 209.2,92.8 209.4,92.6 
		209.6,92.4 209.7,92.1 209.9,91.9 210.1,91.6 210.2,91.4 210.4,91.2 210.6,91 210.7,90.7 210.9,90.5 211,90.2 211.2,90 211.4,89.8 
		211.5,89.5 211.6,89.3 211.8,89.1 211.9,88.9 212.1,88.6 212.2,88.4 212.3,88.1 212.4,87.9 212.6,87.7 212.7,87.4 212.8,87.2 
		212.9,87 213,86.7 213.1,86.5 213.2,86.3 213.3,86 213.4,85.8 213.6,85.6 213.7,85.3 213.8,85.1 213.9,84.9 214.1,84.6 214.2,84.4 
		214.4,84.2 214.6,83.9 214.8,83.7 214.9,83.5 215.2,83.2 215.4,83 215.6,82.8 215.9,82.5 216.2,82.3 216.5,82.1 216.9,81.8 
		217.2,81.6 217.6,81.4 218.1,81.1 218.5,80.9 219,80.7 219.5,80.4 220,80.2 220.6,80 221.2,79.7 221.8,79.5 222.4,79.3 223.1,79 
		223.7,78.8 224.4,78.6 225.1,78.3 225.8,78.1 226.4,77.9 227.1,77.6 227.7,77.4 228.4,77.2 228.9,76.9 229.5,76.7 230.1,76.5 
		230.6,76.2 231.1,76 231.5,75.8 231.9,75.5 232.2,75.3 232.6,75.1 232.9,74.8 233.2,74.6 233.5,74.4 233.7,74.1 234,73.9 
		234.2,73.7 234.5,73.4 234.8,73.2 235.1,73 235.4,72.7 235.8,72.5 236.2,72.3 236.7,72 237.1,71.8 237.7,71.6 238.2,71.3 
		238.9,71.1 239.5,70.9 240.2,70.6 240.9,70.4 241.6,70.2 242.3,69.9 243,69.7 243.7,69.5 244.4,69.2 245,69 245.6,68.8 246.1,68.5 
		246.5,68.3 246.9,68.1 247.2,67.8 247.4,67.6 247.4,67.4 247.4,67.1 247.3,66.9 247,66.7 246.6,66.4 246.2,66.2 245.6,66 245,65.7 
		244.2,65.5 243.4,65.2 242.5,65 241.6,64.8 240.6,64.5 239.6,64.3 238.5,64.1 237.4,63.8 236.4,63.6 235.3,63.4 234.2,63.2 
		233.1,62.9 232.1,62.7 231.1,62.5 230.1,62.2 229.1,62 228.2,61.8 227.3,61.5 226.4,61.3 225.6,61 224.9,60.8 224.1,60.6 
		223.4,60.3 222.8,60.1 222.2,59.9 221.6,59.7 221.1,59.4 220.6,59.2 220.1,59 219.7,58.7 219.2,58.5 218.9,58.2 218.5,58 
		218.1,57.8 217.8,57.5 217.4,57.3 217.1,57.1 216.8,56.8 216.4,56.6 216.1,56.4 215.8,56.2 215.5,55.9 215.2,55.7 214.8,55.4 
		214.5,55.2 214.2,55 213.9,54.7 213.6,54.5 213.3,54.3 213,54 212.7,53.8 212.5,53.6 212.2,53.3 212,53.1 211.8,52.9 211.5,52.6 
		211.3,52.4 211.1,52.2 211,51.9 210.8,51.7 210.7,51.5 210.6,51.2 210.5,51 210.4,50.8 210.3,50.5 210.2,50.3 210.1,50.1 210,49.8 
		210,49.6 209.9,49.4 209.9,49.1 209.8,48.9 209.7,48.7 209.7,48.4 209.6,48.2 209.5,48 209.4,47.7 209.4,47.5 209.3,47.3 209.2,47 
		209.1,46.8 209,46.6 208.9,46.3 208.8,46.1 208.7,45.9 208.6,45.6 208.5,45.4 208.4,45.2 208.4,44.9 208.3,44.7 208.2,44.5 
		208.1,44.2 208.1,44 208,43.8 208,43.5 207.9,43.3 207.9,43.1 207.8,42.8 207.8,42.6 207.8,42.4 207.8,42.1 207.7,41.9 207.7,41.7 
		207.7,41.4 207.7,41.2 207.7,41 207.7,40.7 207.7,40.5 207.7,40.3 207.6,40 207.6,39.8 207.6,39.6 207.6,39.3 207.6,39.1 
		207.6,38.9 207.6,38.6 207.6,38.4 207.6,38.2 207.6,37.9 207.6,37.7 207.6,37.5 207.6,37.2 207.6,37 207.6,36.8 207.6,36.5 
		207.6,36.3 207.6,36.1 207.6,35.8 207.6,35.6 207.6,35.4 207.6,35.1 207.6,34.9 207.6,34.7 207.6,34.4 207.6,34.2 207.6,34 
		207.6,33.7 207.6,33.5 207.6,33.3 207.6,33 207.6,32.8 207.6,32.5 207.6,32.3 207.6,32.1 207.6,31.8 207.6,31.6 207.6,31.4 
		207.6,31.2 207.6,30.9 207.6,30.7 207.6,30.5 207.6,30.2 207.6,30 207.6,29.8 207.6,29.5 207.6,29.3 207.6,29 207.6,28.8 
		207.6,28.6 207.6,28.3 207.6,28.1 207.6,27.9 207.6,27.7 207.6,27.4 207.6,27.2 207.6,27 207.6,26.7 207.6,26.5 207.6,26.2 
		207.7,26 207.7,25.8 207.7,25.5 207.7,25.3 207.7,25.1 207.7,24.8 207.7,24.6 207.7,24.4 207.8,24.2 207.8,23.9 207.8,23.7 
		207.9,23.4 207.9,23.2 208,23 208,22.7 208.1,22.5 208.2,22.3 208.3,22 208.4,21.8 208.5,21.6 208.6,21.3 208.8,21.1 208.9,20.9 
		209,20.6 209.2,20.4 209.4,20.2 209.5,19.9 209.7,19.7 209.9,19.5 210,19.2 210.2,19 210.3,18.8 210.4,18.5 210.6,18.3 210.7,18.1 
		210.8,17.8 210.8,17.6 210.9,17.4 210.9,17.1 210.9,16.9 210.9,16.7 210.8,16.4 210.7,16.2 210.6,16 210.5,15.7 210.4,15.5 
		210.3,15.3 210.1,15 210,14.8 209.8,14.6 209.6,14.3 209.5,14.1 209.3,13.9 209.2,13.6 209,13.4 208.9,13.2 207.6,13.2 207.6,13.4 
		207.6,13.6 207.6,13.9 207.6,14.1 207.6,14.3 207.6,14.6 207.6,14.8 207.6,15 207.6,15.3 207.6,15.5 207.6,15.7 207.6,16 
		207.6,16.2 207.6,16.4 207.6,16.7 207.6,16.9 207.6,17.1 207.6,17.4 207.6,17.6 207.6,17.8 207.6,18.1 207.6,18.3 207.6,18.5 
		207.6,18.8 207.6,19 207.6,19.2 207.6,19.5 207.6,19.7 207.6,19.9 207.6,20.2 207.6,20.4 207.6,20.6 207.6,20.9 207.6,21.1 
		207.6,21.3 207.6,21.6 207.6,21.8 207.6,22 207.6,22.3 207.6,22.5 207.6,22.7 207.6,23 207.6,23.2 207.6,23.4 207.6,23.7 
		207.6,23.9 207.6,24.2 207.6,24.4 207.6,24.6 207.6,24.8 207.6,25.1 207.6,25.3 207.6,25.5 207.6,25.8 207.6,26 207.6,26.2 
		207.6,26.5 207.6,26.7 207.6,27 207.6,27.2 207.6,27.4 207.6,27.7 207.6,27.9 207.6,28.1 207.6,28.3 207.6,28.6 207.6,28.8 
		207.6,29 207.6,29.3 207.6,29.5 207.6,29.8 207.6,30 207.6,30.2 207.6,30.5 207.6,30.7 207.6,30.9 207.6,31.2 207.6,31.4 
		207.6,31.6 207.6,31.8 207.6,32.1 207.6,32.3 207.6,32.5 207.6,32.8 207.6,33 207.6,33.3 207.6,33.5 207.6,33.7 207.6,34 
		207.6,34.2 207.6,34.4 207.6,34.7 207.6,34.9 207.6,35.1 207.6,35.4 207.6,35.6 207.6,35.8 207.6,36.1 207.6,36.3 207.6,36.5 
		207.6,36.8 207.6,37 207.6,37.2 207.6,37.5 207.6,37.7 207.6,37.9 207.6,38.2 207.6,38.4 207.6,38.6 207.6,38.9 207.6,39.1 
		207.6,39.3 207.6,39.6 207.6,39.8 207.6,40 207.6,40.3 207.6,40.5 207.6,40.7 207.6,41 207.6,41.2 207.6,41.4 207.6,41.7 
		207.6,41.9 207.6,42.1 207.6,42.4 207.6,42.6 207.6,42.8 207.6,43.1 207.6,43.3 207.6,43.5 207.6,43.8 207.6,44 207.6,44.2 
		207.6,44.5 207.6,44.7 207.6,44.9 207.6,45.2 207.6,45.4 207.6,45.6 207.6,45.9 207.6,46.1 207.6,46.3 207.6,46.6 207.6,46.8 
		207.6,47 207.6,47.3 207.6,47.5 207.6,47.7 207.6,48 207.6,48.2 207.6,48.4 207.6,48.7 207.6,48.9 207.6,49.1 207.6,49.4 
		207.6,49.6 207.6,49.8 207.6,50.1 207.6,50.3 207.6,50.5 207.6,50.8 207.6,51 207.6,51.2 207.6,51.5 207.6,51.7 207.6,51.9 
		207.6,52.2 207.6,52.4 207.6,52.6 207.6,52.9 207.6,53.1 207.6,53.3 207.6,53.6 207.6,53.8 207.6,54 207.6,54.3 207.6,54.5 
		207.6,54.7 207.6,55 207.6,55.2 207.6,55.4 207.6,55.7 207.6,55.9 207.6,56.2 207.6,56.4 207.6,56.6 207.6,56.8 207.6,57.1 
		207.6,57.3 207.6,57.5 207.6,57.8 207.6,58 207.6,58.2 207.6,58.5 207.6,58.7 207.6,59 207.6,59.2 207.6,59.4 207.6,59.7 
		207.6,59.9 207.6,60.1 207.6,60.3 207.6,60.6 207.6,60.8 207.6,61 207.6,61.3 207.6,61.5 207.6,61.8 207.6,62 207.6,62.2 
		207.6,62.5 207.6,62.7 207.6,62.9 207.6,63.2 207.6,63.4 207.6,63.6 207.6,63.8 207.6,64.1 207.6,64.3 207.6,64.5 207.6,64.8 
		207.6,65 207.6,65.2 207.6,65.5 207.6,65.7 207.6,66 207.6,66.2 207.6,66.4 207.6,66.7 207.6,66.9 207.6,67.1 207.6,67.4 
		207.6,67.6 207.6,67.8 207.6,68.1 207.6,68.3 207.6,68.5 207.6,68.8 207.6,69 207.6,69.2 207.6,69.5 207.6,69.7 207.6,69.9 
		207.6,70.2 207.6,70.4 207.6,70.6 207.6,70.9 207.6,71.1 207.6,71.3 207.6,71.6 207.6,71.8 207.6,72 207.6,72.3 207.6,72.5 
		207.6,72.7 207.6,73 207.6,73.2 207.6,73.4 207.6,73.7 207.6,73.9 207.6,74.1 207.6,74.4 207.6,74.6 207.6,74.8 207.6,75.1 
		207.6,75.3 207.6,75.5 207.6,75.8 207.6,76 207.6,76.2 207.6,76.5 207.6,76.7 207.6,76.9 207.6,77.2 207.6,77.4 207.6,77.6 
		207.6,77.9 207.6,78.1 207.6,78.3 207.6,78.6 207.6,78.8 207.6,79 207.6,79.3 207.6,79.5 207.6,79.7 207.6,80 207.6,80.2 
		207.6,80.4 207.6,80.7 207.6,80.9 207.6,81.1 207.6,81.4 207.6,81.6 207.6,81.8 207.6,82.1 207.6,82.3 207.6,82.5 207.6,82.8 
		207.6,83 207.6,83.2 207.6,83.5 207.6,83.7 207.6,83.9 207.6,84.2 207.6,84.4 207.6,84.6 207.6,84.9 207.6,85.1 207.6,85.3 
		207.6,85.6 207.6,85.8 207.6,86 207.6,86.3 207.6,86.5 207.6,86.7 207.6,87 207.6,87.2 207.6,87.4 207.6,87.7 207.6,87.9 
		207.6,88.1 207.6,88.4 207.6,88.6 207.6,88.9 207.6,89.1 207.6,89.3 207.6,89.5 207.6,89.8 207.6,90 207.6,90.2 207.6,90.5 
		207.6,90.7 207.6,91 207.6,91.2 207.6,91.4 207.6,91.6 207.6,91.9 207.6,92.1 207.6,92.4 207.6,92.6 207.6,92.8 207.6,93 
		207.6,93.3 207.6,93.5 207.6,93.8 207.6,94 207.6,94.2 207.6,94.5 207.6,94.7 207.6,94.9 207.6,95.1 207.6,95.4 207.6,95.6 
		207.6,95.9 207.6,96.1 207.6,96.3 207.6,96.5 207.6,96.8 207.6,97 207.6,97.2 207.6,97.5 207.6,97.7 207.6,98 207.6,98.2 
		207.6,98.4 207.6,98.7 207.6,98.9 207.6,99.1 207.6,99.4 207.6,99.6 207.6,99.8 207.6,100.1 207.6,100.3 207.6,100.5 207.6,100.8 
		207.6,101 207.6,101.2 207.6,101.5 207.6,101.7 207.6,101.9 207.6,102.2 207.6,102.4 207.6,102.6 207.6,102.9 207.6,103.1 
		207.6,103.3 207.6,103.6 207.6,103.8 207.6,104 207.6,104.3 207.6,104.5 207.6,104.7 207.6,105 207.6,105.2 207.6,105.4 
		207.6,105.7 207.6,105.9 207.6,106.1 207.6,106.4 207.6,106.6 207.6,106.8 207.6,107.1 207.6,107.3 207.6,107.5 207.6,107.8 
		207.6,108 207.6,108.2 207.6,108.5 207.6,108.7 207.6,108.9 207.6,109.2 207.6,109.4 207.6,109.6 207.6,109.9 207.6,110.1 
		207.6,110.3 207.6,110.6 207.6,110.8 207.6,111 207.6,111.3 207.6,111.5 207.6,111.7 207.6,112 207.6,112.2 207.6,112.4 
		207.6,112.7 207.6,112.9 207.6,113.1 207.6,113.4 207.6,113.6 207.6,113.8 207.6,114.1 207.6,114.3 207.6,114.5 207.6,114.8 
		207.6,115 207.6,115.2 207.6,115.5 207.6,115.7 207.6,115.9 207.6,116.2 207.6,116.4 207.6,116.6 207.6,116.9 207.6,117.1 
		207.6,117.3 207.6,117.6 207.6,117.8 207.6,118 207.6,118.3 207.6,118.5 207.6,118.7 207.6,119 207.6,119.2 207.6,119.4 
		207.6,119.7 207.6,119.9 207.6,120.1 207.6,120.4 207.6,120.6 207.6,120.8 207.6,121.1 207.6,121.3 207.6,121.5 207.6,121.8 
		207.6,122 207.6,122.2 207.6,122.5 207.6,122.7 207.6,123 207.6,123.2 207.6,123.4 207.6,123.6 207.6,123.9 207.6,124.1 
		207.6,124.4 207.6,124.6 207.6,124.8 207.6,125 207.6,125.3 207.6,125.5 207.6,125.8 207.6,126 207.6,126.2 207.6,126.5 
		207.6,126.7 207.6,126.9 207.6,127.1 207.6,127.4 207.6,127.6 207.6,127.9 207.6,128.1 207.6,128.3 207.6,128.5 207.6,128.8 
		207.6,129 207.6,129.2 207.6,129.5 207.6,129.7 207.6,130 207.6,130.2 207.6,130.4 207.6,130.6 207.6,130.9 207.6,131.1 
		207.6,131.4 207.6,131.6 207.6,131.8 207.6,132.1 207.6,132.3 207.6,132.5 	"/>
	<polyline class="st23" points="207.6,132.5 207.6,132.3 207.6,132.1 207.6,131.8 207.6,131.6 207.6,131.4 207.6,131.1 207.6,130.9 
		207.6,130.6 207.6,130.4 207.6,130.2 207.6,130 207.6,129.7 207.6,129.5 207.6,129.2 207.6,129 207.6,128.8 207.6,128.5 
		207.6,128.3 207.6,128.1 207.6,127.9 207.6,127.6 207.6,127.4 207.6,127.1 207.6,126.9 207.6,126.7 207.6,126.5 207.6,126.2 
		207.6,126 207.6,125.8 207.6,125.5 207.6,125.3 207.6,125 207.6,124.8 207.6,124.6 207.6,124.4 207.6,124.1 207.6,123.9 
		207.6,123.6 207.6,123.4 207.6,123.2 207.6,123 207.6,122.7 207.6,122.5 207.6,122.2 207.6,122 207.6,121.8 207.6,121.5 
		207.6,121.3 207.6,121.1 207.6,120.8 207.6,120.6 207.6,120.4 207.6,120.1 207.6,119.9 207.6,119.7 207.6,119.4 207.6,119.2 
		207.6,119 207.6,118.7 207.6,118.5 207.6,118.3 207.6,118 207.6,117.8 207.6,117.6 207.6,117.3 207.6,117.1 207.6,116.9 
		207.6,116.6 207.6,116.4 207.6,116.2 207.6,115.9 207.6,115.7 207.6,115.5 207.6,115.2 207.6,115 207.6,114.8 207.6,114.5 
		207.6,114.3 207.6,114.1 207.6,113.8 207.6,113.6 207.6,113.4 207.6,113.1 207.6,112.9 207.6,112.7 207.6,112.4 207.6,112.2 
		207.6,112 207.6,111.7 207.6,111.5 207.6,111.3 207.6,111 207.6,110.8 207.6,110.6 207.6,110.3 207.6,110.1 207.6,109.9 
		207.6,109.6 207.6,109.4 207.6,109.2 207.6,108.9 207.6,108.7 207.6,108.5 207.6,108.2 207.6,108 207.6,107.8 207.6,107.5 
		207.7,107.3 207.7,107.1 207.7,106.8 207.7,106.6 207.7,106.4 207.7,106.1 207.7,105.9 207.7,105.7 207.7,105.4 207.8,105.2 
		207.8,105 207.8,104.7 207.8,104.5 207.9,104.3 207.9,104 207.9,103.8 208,103.6 208,103.3 208.1,103.1 208.1,102.9 208.2,102.6 
		208.2,102.4 208.3,102.2 208.3,101.9 208.4,101.7 208.4,101.5 208.5,101.2 208.5,101 208.6,100.8 208.6,100.5 208.6,100.3 
		208.6,100.1 208.7,99.8 208.7,99.6 208.7,99.4 208.7,99.1 208.7,98.9 208.7,98.7 208.7,98.4 208.6,98.2 208.6,98 208.6,97.7 
		208.6,97.5 208.6,97.2 208.6,97 208.6,96.8 208.6,96.5 208.6,96.3 208.6,96.1 208.7,95.9 208.7,95.6 208.8,95.4 208.8,95.1 
		208.9,94.9 209,94.7 209.1,94.5 209.2,94.2 209.3,94 209.4,93.8 209.5,93.5 209.7,93.3 209.8,93 209.9,92.8 210.1,92.6 210.2,92.4 
		210.4,92.1 210.5,91.9 210.6,91.6 210.8,91.4 210.9,91.2 211,91 211.1,90.7 211.2,90.5 211.4,90.2 211.4,90 211.5,89.8 211.6,89.5 
		211.7,89.3 211.8,89.1 211.9,88.9 211.9,88.6 212,88.4 212.1,88.1 212.1,87.9 212.2,87.7 212.3,87.4 212.3,87.2 212.4,87 
		212.5,86.7 212.6,86.5 212.7,86.3 212.8,86 212.9,85.8 213.1,85.6 213.2,85.3 213.4,85.1 213.6,84.9 213.9,84.6 214.1,84.4 
		214.4,84.2 214.7,83.9 215,83.7 215.4,83.5 215.8,83.2 216.2,83 216.6,82.8 217.1,82.5 217.6,82.3 218.1,82.1 218.6,81.8 
		219.2,81.6 219.8,81.4 220.4,81.1 221,80.9 221.6,80.7 222.3,80.4 223,80.2 223.7,80 224.4,79.7 225.1,79.5 225.8,79.3 226.5,79 
		227.3,78.8 228,78.6 228.7,78.3 229.4,78.1 230.1,77.9 230.8,77.6 231.5,77.4 232.2,77.2 232.8,76.9 233.5,76.7 234.1,76.5 
		234.7,76.2 235.2,76 235.8,75.8 236.3,75.5 236.8,75.3 237.2,75.1 237.7,74.8 238.1,74.6 238.5,74.4 238.8,74.1 239.1,73.9 
		239.4,73.7 239.7,73.4 239.9,73.2 240.1,73 240.3,72.7 240.5,72.5 240.6,72.3 240.8,72 240.9,71.8 241.1,71.6 241.2,71.3 
		241.3,71.1 241.4,70.9 241.5,70.6 241.6,70.4 241.8,70.2 241.9,69.9 242,69.7 242.1,69.5 242.2,69.2 242.3,69 242.4,68.8 
		242.4,68.5 242.4,68.3 242.4,68.1 242.4,67.8 242.3,67.6 242.2,67.4 242.1,67.1 241.9,66.9 241.6,66.7 241.3,66.4 240.9,66.2 
		240.4,66 240,65.7 239.4,65.5 238.8,65.2 238.2,65 237.5,64.8 236.7,64.5 236,64.3 235.2,64.1 234.3,63.8 233.5,63.6 232.6,63.4 
		231.7,63.2 230.8,62.9 230,62.7 229.1,62.5 228.2,62.2 227.4,62 226.5,61.8 225.7,61.5 224.9,61.3 224.2,61 223.5,60.8 222.8,60.6 
		222.1,60.3 221.5,60.1 220.9,59.9 220.3,59.7 219.8,59.4 219.3,59.2 218.9,59 218.4,58.7 218,58.5 217.6,58.2 217.3,58 216.9,57.8 
		216.6,57.5 216.3,57.3 216,57.1 215.7,56.8 215.4,56.6 215.1,56.4 214.8,56.2 214.5,55.9 214.2,55.7 213.9,55.4 213.6,55.2 
		213.4,55 213.1,54.7 212.8,54.5 212.5,54.3 212.3,54 212,53.8 211.8,53.6 211.5,53.3 211.3,53.1 211.1,52.9 210.8,52.6 210.6,52.4 
		210.4,52.2 210.3,51.9 210.1,51.7 210,51.5 209.9,51.2 209.7,51 209.6,50.8 209.5,50.5 209.4,50.3 209.4,50.1 209.3,49.8 
		209.2,49.6 209.1,49.4 209.1,49.1 209,48.9 209,48.7 208.9,48.4 208.9,48.2 208.8,48 208.8,47.7 208.7,47.5 208.7,47.3 208.6,47 
		208.5,46.8 208.5,46.6 208.4,46.3 208.4,46.1 208.3,45.9 208.2,45.6 208.2,45.4 208.1,45.2 208.1,44.9 208,44.7 208,44.5 
		207.9,44.2 207.9,44 207.9,43.8 207.8,43.5 207.8,43.3 207.8,43.1 207.8,42.8 207.7,42.6 207.7,42.4 207.7,42.1 207.7,41.9 
		207.7,41.7 207.7,41.4 207.7,41.2 207.7,41 207.7,40.7 207.6,40.5 207.6,40.3 207.6,40 207.6,39.8 207.6,39.6 207.6,39.3 
		207.6,39.1 207.6,38.9 207.6,38.6 207.6,38.4 207.6,38.2 207.6,37.9 207.6,37.7 207.6,37.5 207.6,37.2 207.6,37 207.6,36.8 
		207.6,36.5 207.6,36.3 207.6,36.1 207.6,35.8 207.6,35.6 207.6,35.4 207.6,35.1 207.6,34.9 207.6,34.7 207.6,34.4 207.6,34.2 
		207.6,34 207.6,33.7 207.6,33.5 207.6,33.3 207.6,33 207.6,32.8 207.6,32.5 207.6,32.3 207.6,32.1 207.6,31.8 207.6,31.6 
		207.6,31.4 207.6,31.2 207.6,30.9 207.6,30.7 207.6,30.5 207.6,30.2 207.6,30 207.6,29.8 207.6,29.5 207.6,29.3 207.6,29 
		207.6,28.8 207.6,28.6 207.6,28.3 207.6,28.1 207.6,27.9 207.6,27.7 207.6,27.4 207.6,27.2 207.6,27 207.6,26.7 207.6,26.5 
		207.6,26.2 207.6,26 207.6,25.8 207.7,25.5 207.7,25.3 207.7,25.1 207.7,24.8 207.7,24.6 207.7,24.4 207.7,24.2 207.7,23.9 
		207.8,23.7 207.8,23.4 207.8,23.2 207.9,23 207.9,22.7 207.9,22.5 208,22.3 208,22 208.1,21.8 208.2,21.6 208.2,21.3 208.3,21.1 
		208.4,20.9 208.5,20.6 208.6,20.4 208.7,20.2 208.8,19.9 208.9,19.7 209,19.5 209.1,19.2 209.2,19 209.3,18.8 209.4,18.5 
		209.4,18.3 209.5,18.1 209.6,17.8 209.6,17.6 209.6,17.4 209.6,17.1 209.6,16.9 209.6,16.7 209.6,16.4 209.6,16.2 209.5,16 
		209.4,15.7 209.4,15.5 209.3,15.3 209.2,15 209.1,14.8 209,14.6 208.9,14.3 208.8,14.1 208.7,13.9 208.6,13.6 208.5,13.4 
		208.4,13.2 207.6,13.2 207.6,13.4 207.6,13.6 207.6,13.9 207.6,14.1 207.6,14.3 207.6,14.6 207.6,14.8 207.6,15 207.6,15.3 
		207.6,15.5 207.6,15.7 207.6,16 207.6,16.2 207.6,16.4 207.6,16.7 207.6,16.9 207.6,17.1 207.6,17.4 207.6,17.6 207.6,17.8 
		207.6,18.1 207.6,18.3 207.6,18.5 207.6,18.8 207.6,19 207.6,19.2 207.6,19.5 207.6,19.7 207.6,19.9 207.6,20.2 207.6,20.4 
		207.6,20.6 207.6,20.9 207.6,21.1 207.6,21.3 207.6,21.6 207.6,21.8 207.6,22 207.6,22.3 207.6,22.5 207.6,22.7 207.6,23 
		207.6,23.2 207.6,23.4 207.6,23.7 207.6,23.9 207.6,24.2 207.6,24.4 207.6,24.6 207.6,24.8 207.6,25.1 207.6,25.3 207.6,25.5 
		207.6,25.8 207.6,26 207.6,26.2 207.6,26.5 207.6,26.7 207.6,27 207.6,27.2 207.6,27.4 207.6,27.7 207.6,27.9 207.6,28.1 
		207.6,28.3 207.6,28.6 207.6,28.8 207.6,29 207.6,29.3 207.6,29.5 207.6,29.8 207.6,30 207.6,30.2 207.6,30.5 207.6,30.7 
		207.6,30.9 207.6,31.2 207.6,31.4 207.6,31.6 207.6,31.8 207.6,32.1 207.6,32.3 207.6,32.5 207.6,32.8 207.6,33 207.6,33.3 
		207.6,33.5 207.6,33.7 207.6,34 207.6,34.2 207.6,34.4 207.6,34.7 207.6,34.9 207.6,35.1 207.6,35.4 207.6,35.6 207.6,35.8 
		207.6,36.1 207.6,36.3 207.6,36.5 207.6,36.8 207.6,37 207.6,37.2 207.6,37.5 207.6,37.7 207.6,37.9 207.6,38.2 207.6,38.4 
		207.6,38.6 207.6,38.9 207.6,39.1 207.6,39.3 207.6,39.6 207.6,39.8 207.6,40 207.6,40.3 207.6,40.5 207.6,40.7 207.6,41 
		207.6,41.2 207.6,41.4 207.6,41.7 207.6,41.9 207.6,42.1 207.6,42.4 207.6,42.6 207.6,42.8 207.6,43.1 207.6,43.3 207.6,43.5 
		207.6,43.8 207.6,44 207.6,44.2 207.6,44.5 207.6,44.7 207.6,44.9 207.6,45.2 207.6,45.4 207.6,45.6 207.6,45.9 207.6,46.1 
		207.6,46.3 207.6,46.6 207.6,46.8 207.6,47 207.6,47.3 207.6,47.5 207.6,47.7 207.6,48 207.6,48.2 207.6,48.4 207.6,48.7 
		207.6,48.9 207.6,49.1 207.6,49.4 207.6,49.6 207.6,49.8 207.6,50.1 207.6,50.3 207.6,50.5 207.6,50.8 207.6,51 207.6,51.2 
		207.6,51.5 207.6,51.7 207.6,51.9 207.6,52.2 207.6,52.4 207.6,52.6 207.6,52.9 207.6,53.1 207.6,53.3 207.6,53.6 207.6,53.8 
		207.6,54 207.6,54.3 207.6,54.5 207.6,54.7 207.6,55 207.6,55.2 207.6,55.4 207.6,55.7 207.6,55.9 207.6,56.2 207.6,56.4 
		207.6,56.6 207.6,56.8 207.6,57.1 207.6,57.3 207.6,57.5 207.6,57.8 207.6,58 207.6,58.2 207.6,58.5 207.6,58.7 207.6,59 
		207.6,59.2 207.6,59.4 207.6,59.7 207.6,59.9 207.6,60.1 207.6,60.3 207.6,60.6 207.6,60.8 207.6,61 207.6,61.3 207.6,61.5 
		207.6,61.8 207.6,62 207.6,62.2 207.6,62.5 207.6,62.7 207.6,62.9 207.6,63.2 207.6,63.4 207.6,63.6 207.6,63.8 207.6,64.1 
		207.6,64.3 207.6,64.5 207.6,64.8 207.6,65 207.6,65.2 207.6,65.5 207.6,65.7 207.6,66 207.6,66.2 207.6,66.4 207.6,66.7 
		207.6,66.9 207.6,67.1 207.6,67.4 207.6,67.6 207.6,67.8 207.6,68.1 207.6,68.3 207.6,68.5 207.6,68.8 207.6,69 207.6,69.2 
		207.6,69.5 207.6,69.7 207.6,69.9 207.6,70.2 207.6,70.4 207.6,70.6 207.6,70.9 207.6,71.1 207.6,71.3 207.6,71.6 207.6,71.8 
		207.6,72 207.6,72.3 207.6,72.5 207.6,72.7 207.6,73 207.6,73.2 207.6,73.4 207.6,73.7 207.6,73.9 207.6,74.1 207.6,74.4 
		207.6,74.6 207.6,74.8 207.6,75.1 207.6,75.3 207.6,75.5 207.6,75.8 207.6,76 207.6,76.2 207.6,76.5 207.6,76.7 207.6,76.9 
		207.6,77.2 207.6,77.4 207.6,77.6 207.6,77.9 207.6,78.1 207.6,78.3 207.6,78.6 207.6,78.8 207.6,79 207.6,79.3 207.6,79.5 
		207.6,79.7 207.6,80 207.6,80.2 207.6,80.4 207.6,80.7 207.6,80.9 207.6,81.1 207.6,81.4 207.6,81.6 207.6,81.8 207.6,82.1 
		207.6,82.3 207.6,82.5 207.6,82.8 207.6,83 207.6,83.2 207.6,83.5 207.6,83.7 207.6,83.9 207.6,84.2 207.6,84.4 207.6,84.6 
		207.6,84.9 207.6,85.1 207.6,85.3 207.6,85.6 207.6,85.8 207.6,86 207.6,86.3 207.6,86.5 207.6,86.7 207.6,87 207.6,87.2 
		207.6,87.4 207.6,87.7 207.6,87.9 207.6,88.1 207.6,88.4 207.6,88.6 207.6,88.9 207.6,89.1 207.6,89.3 207.6,89.5 207.6,89.8 
		207.6,90 207.6,90.2 207.6,90.5 207.6,90.7 207.6,91 207.6,91.2 207.6,91.4 207.6,91.6 207.6,91.9 207.6,92.1 207.6,92.4 
		207.6,92.6 207.6,92.8 207.6,93 207.6,93.3 207.6,93.5 207.6,93.8 207.6,94 207.6,94.2 207.6,94.5 207.6,94.7 207.6,94.9 
		207.6,95.1 207.6,95.4 207.6,95.6 207.6,95.9 207.6,96.1 207.6,96.3 207.6,96.5 207.6,96.8 207.6,97 207.6,97.2 207.6,97.5 
		207.6,97.7 207.6,98 207.6,98.2 207.6,98.4 207.6,98.7 207.6,98.9 207.6,99.1 207.6,99.4 207.6,99.6 207.6,99.8 207.6,100.1 
		207.6,100.3 207.6,100.5 207.6,100.8 207.6,101 207.6,101.2 207.6,101.5 207.6,101.7 207.6,101.9 207.6,102.2 207.6,102.4 
		207.6,102.6 207.6,102.9 207.6,103.1 207.6,103.3 207.6,103.6 207.6,103.8 207.6,104 207.6,104.3 207.6,104.5 207.6,104.7 
		207.6,105 207.6,105.2 207.6,105.4 207.6,105.7 207.6,105.9 207.6,106.1 207.6,106.4 207.6,106.6 207.6,106.8 207.6,107.1 
		207.6,107.3 207.6,107.5 207.6,107.8 207.6,108 207.6,108.2 207.6,108.5 207.6,108.7 207.6,108.9 207.6,109.2 207.6,109.4 
		207.6,109.6 207.6,109.9 207.6,110.1 207.6,110.3 207.6,110.6 207.6,110.8 207.6,111 207.6,111.3 207.6,111.5 207.6,111.7 
		207.6,112 207.6,112.2 207.6,112.4 207.6,112.7 207.6,112.9 207.6,113.1 207.6,113.4 207.6,113.6 207.6,113.8 207.6,114.1 
		207.6,114.3 207.6,114.5 207.6,114.8 207.6,115 207.6,115.2 207.6,115.5 207.6,115.7 207.6,115.9 207.6,116.2 207.6,116.4 
		207.6,116.6 207.6,116.9 207.6,117.1 207.6,117.3 207.6,117.6 207.6,117.8 207.6,118 207.6,118.3 207.6,118.5 207.6,118.7 
		207.6,119 207.6,119.2 207.6,119.4 207.6,119.7 207.6,119.9 207.6,120.1 207.6,120.4 207.6,120.6 207.6,120.8 207.6,121.1 
		207.6,121.3 207.6,121.5 207.6,121.8 207.6,122 207.6,122.2 207.6,122.5 207.6,122.7 207.6,123 207.6,123.2 207.6,123.4 
		207.6,123.6 207.6,123.9 207.6,124.1 207.6,124.4 207.6,124.6 207.6,124.8 207.6,125 207.6,125.3 207.6,125.5 207.6,125.8 
		207.6,126 207.6,126.2 207.6,126.5 207.6,126.7 207.6,126.9 207.6,127.1 207.6,127.4 207.6,127.6 207.6,127.9 207.6,128.1 
		207.6,128.3 207.6,128.5 207.6,128.8 207.6,129 207.6,129.2 207.6,129.5 207.6,129.7 207.6,130 207.6,130.2 207.6,130.4 
		207.6,130.6 207.6,130.9 207.6,131.1 207.6,131.4 207.6,131.6 207.6,131.8 207.6,132.1 207.6,132.3 207.6,132.5 	"/>
	<line class="st24" x1="205.6" y1="72.9" x2="249.4" y2="72.9"/>
</g>
<text transform="matrix(-6.123234e-17 1 -1 -6.123234e-17 263.7803 60.4503)" class="st15 st25">RF − RerF</text>
<rect x="61" y="177.2" class="st26" width="161" height="40.8"/>
<text transform="matrix(1 0 0 1 66.6899 190.79)" class="st15 st12">Dataset type</text>
<rect x="66.7" y="195.1" class="st27" width="17.3" height="17.3"/>
<rect x="67.8" y="196.2" class="st28" width="15.2" height="15.1"/>
<rect x="67.8" y="196.2" class="st28" width="15.2" height="15.1"/>
<rect x="98.1" y="195.1" class="st27" width="17.3" height="17.3"/>
<rect x="99.1" y="196.2" class="st29" width="15.2" height="15.1"/>
<rect x="99.1" y="196.2" class="st29" width="15.2" height="15.1"/>
<rect x="164.2" y="195.1" class="st27" width="17.3" height="17.3"/>
<rect x="165.2" y="196.2" class="st30" width="15.1" height="15.1"/>
<rect x="165.2" y="196.2" class="st30" width="15.1" height="15.1"/>
<text transform="matrix(1 0 0 1 86.1298 206.9599)" class="st15 st31">All</text>
<text transform="matrix(1 0 0 1 117.5102 206.9599)"><tspan x="0" y="0" class="st15 st31">Catego</tspan><tspan x="29" y="0" class="st15 st31">r</tspan><tspan x="32.1" y="0" class="st15 st31">ical</tspan></text>
<text transform="matrix(1 0 0 1 183.6299 206.9599)"><tspan x="0" y="0" class="st15 st31">Nume</tspan><tspan x="24" y="0" class="st15 st31">r</tspan><tspan x="27.1" y="0" class="st15 st31">ic</tspan></text>
</svg>
