<?xml version="1.0" encoding="utf-8"?>
<!-- Generator: Adobe Illustrator 22.0.1, SVG Export Plug-In . SVG Version: 6.00 Build 0)  -->
<svg version="1.1" id="Layer_1" xmlns="http://www.w3.org/2000/svg" xmlns:xlink="http://www.w3.org/1999/xlink" x="0px" y="0px"
	 viewBox="0 0 1072 720" style="enable-background:new 0 0 1072 720;" xml:space="preserve">
<style type="text/css">
	.st0{clip-path:url(#SVGID_2_);fill:#FFFFFF;}
	.st1{fill:#FFFFFF;}
	.st2{fill:none;stroke:#262626;stroke-width:0.5;stroke-linecap:square;stroke-linejoin:round;stroke-miterlimit:10;}
	.st3{fill:#262626;}
	.st4{font-family:'Helvetica';}
	.st5{font-size:14px;}
	.st6{fill:none;stroke:#4D4D4D;stroke-width:3;stroke-linejoin:bevel;stroke-miterlimit:1;stroke-dasharray:2.6667,2.6667;}
	
		.st7{fill:none;stroke:#4D4D4D;stroke-width:3;stroke-linejoin:bevel;stroke-miterlimit:1;stroke-dasharray:10.6667,2.6667,5.3333,2.6667;}
	.st8{fill:none;stroke:#4D4D4D;stroke-width:3;stroke-linejoin:bevel;stroke-miterlimit:1;stroke-dasharray:10.6667,10.6667;}
	.st9{fill:none;stroke:#999999;stroke-width:3;stroke-linejoin:bevel;stroke-miterlimit:1;stroke-dasharray:10.6667,10.6667;}
	.st10{fill:none;stroke:#999999;stroke-width:3;stroke-linejoin:bevel;stroke-miterlimit:1;stroke-dasharray:2.6667,2.6667;}
	.st11{fill:none;stroke:#E6E6E6;stroke-width:3;stroke-linejoin:bevel;stroke-miterlimit:1;stroke-dasharray:10.6667,10.6667;}
	.st12{fill:none;stroke:#E6E6E6;stroke-width:3;stroke-linejoin:bevel;stroke-miterlimit:1;stroke-dasharray:2.6667,2.6667;}
	.st13{fill:none;stroke:#00FF00;stroke-width:3;stroke-linejoin:round;stroke-miterlimit:10;}
	.st14{font-family:'Helvetica-Bold';}
	.st15{font-size:24px;}
</style>
<g>
	<defs>
		<rect id="SVGID_1_" width="1152" height="720"/>
	</defs>
	<clipPath id="SVGID_2_">
		<use xlink:href="#SVGID_1_"  style="overflow:visible;"/>
	</clipPath>
	<rect class="st0" width="1152" height="720"/>
</g>
<rect class="st1" width="1152" height="720"/>
<rect x="167.7" y="83.3" class="st1" width="107.3" height="107.3"/>
<line class="st2" x1="167.7" y1="190.7" x2="275" y2="190.7"/>
<line class="st2" x1="167.7" y1="190.7" x2="167.7" y2="189.6"/>
<line class="st2" x1="275" y1="190.7" x2="275" y2="189.6"/>
<text transform="matrix(1 0 0 1 163.667 210.7998)" class="st3 st4 st5">1</text>
<text transform="matrix(1 0 0 1 259.3335 210.7998)" class="st3 st4 st5">1000</text>
<line class="st2" x1="167.7" y1="190.7" x2="167.7" y2="83.3"/>
<line class="st2" x1="167.7" y1="190.7" x2="168.7" y2="190.7"/>
<line class="st2" x1="167.7" y1="163.8" x2="168.7" y2="163.8"/>
<line class="st2" x1="167.7" y1="137" x2="168.7" y2="137"/>
<line class="st2" x1="167.7" y1="110.2" x2="168.7" y2="110.2"/>
<line class="st2" x1="167.7" y1="83.3" x2="168.7" y2="83.3"/>
<text transform="matrix(1 0 0 1 149.5332 196.3335)" class="st3 st4 st5">-1</text>
<text transform="matrix(1 0 0 1 137.5332 169.5)" class="st3 st4 st5">-0.5</text>
<text transform="matrix(1 0 0 1 154.2002 142.667)" class="st3 st4 st5">0</text>
<text transform="matrix(1 0 0 1 142.2002 115.8335)" class="st3 st4 st5">0.5</text>
<text transform="matrix(1 0 0 1 154.2002 89)" class="st3 st4 st5">1</text>
<polyline class="st6" points="167.7,137 172.9,139.2 178.3,149.3 183.7,157.1 189,162 194.4,166.4 199.8,167.3 205.2,168 
	210.5,167.2 215.9,167.6 221.3,167.6 226.7,166.5 232,165.6 237.4,164.3 242.8,162.9 248.1,162.7 253.5,162.4 258.9,161.8 
	264.3,160.3 269.6,159.8 275,159 "/>
<polyline class="st7" points="167.7,137 172.9,137 178.3,137 183.7,137 189,136.9 194.4,136.9 199.8,136.6 205.2,136.5 210.5,136.4 
	215.9,136.2 221.3,136 226.7,135.5 232,135.8 237.4,135.9 242.8,134.8 248.1,135.5 253.5,135.8 258.9,135.9 264.3,135.9 
	269.6,135.8 275,135.6 "/>
<polyline class="st8" points="167.7,137 172.9,137 178.3,137 183.7,137 189,136.9 194.4,136.8 199.8,136.6 205.2,136.4 210.5,136.4 
	215.9,136.2 221.3,135.9 226.7,135.4 232,135.8 237.4,135.8 242.8,134.9 248.1,135.4 253.5,135.6 258.9,135.9 264.3,135.8 
	269.6,135.8 275,135.5 "/>
<polyline class="st9" points="167.7,137 172.9,138.8 178.3,151.4 183.7,162.9 189,170.2 194.4,173.2 199.8,175.7 205.2,175.9 
	210.5,176.4 215.9,175.6 221.3,174.8 226.7,173.6 232,172.2 237.4,171.6 242.8,169.5 248.1,168.6 253.5,168.4 258.9,167.1 
	264.3,165.6 269.6,165.5 275,164.4 "/>
<polyline class="st10" points="167.7,137 172.9,137 178.3,137.6 183.7,139.4 189,141.6 194.4,144.4 199.8,145.9 205.2,147.7 
	210.5,149.1 215.9,149.7 221.3,148.7 226.7,150.4 232,151.1 237.4,149.5 242.8,150 248.1,149.3 253.5,149.6 258.9,149.3 264.3,149 
	269.6,149.3 275,149 "/>
<polyline class="st11" points="167.7,137 172.9,137 178.3,137 183.7,136.9 189,136.7 194.4,136.2 199.8,135.6 205.2,134.8 
	210.5,134.6 215.9,134.2 221.3,133.3 226.7,132.7 232,132.8 237.4,132.6 242.8,131 248.1,131.7 253.5,132.2 258.9,132.6 
	264.3,132.4 269.6,132.1 275,132.2 "/>
<polyline class="st12" points="167.7,137 172.9,137 178.3,137 183.7,136.9 189,136.8 194.4,136.5 199.8,136.2 205.2,135.4 
	210.5,135.6 215.9,135.4 221.3,135 226.7,134.2 232,134 237.4,134.5 242.8,133.1 248.1,133.9 253.5,134.4 258.9,134 264.3,133.9 
	269.6,134.4 275,134.6 "/>
<polyline class="st13" points="167.7,137 172.9,137 178.3,137 183.7,137 189,137 194.4,137 199.8,137 205.2,137 210.5,137 
	215.9,137 221.3,137 226.7,137 232,137 237.4,137 242.8,137 248.1,137 253.5,137 258.9,137 264.3,137 269.6,137 275,137 "/>
<text transform="matrix(1 0 0 1 167.667 74.6338)" class="st14 st5">1. Linear</text>
<rect x="355" y="83.3" class="st1" width="107.3" height="107.3"/>
<line class="st2" x1="355" y1="190.7" x2="462.3" y2="190.7"/>
<line class="st2" x1="355" y1="190.7" x2="355" y2="189.6"/>
<line class="st2" x1="462.3" y1="190.7" x2="462.3" y2="189.6"/>
<text transform="matrix(1 0 0 1 351 210.7998)" class="st3 st4 st5">1</text>
<text transform="matrix(1 0 0 1 446.667 210.7998)" class="st3 st4 st5">1000</text>
<line class="st2" x1="355" y1="190.7" x2="355" y2="83.3"/>
<polyline class="st6" points="355,137 360.3,164.5 365.6,173.6 371,177.7 376.4,178.7 381.8,177.4 387.1,176.2 392.5,175.6 
	397.9,172.9 403.2,171.9 408.6,168.8 414,168.7 419.4,167 424.7,165.2 430.1,164 435.5,162.5 440.8,161.7 446.2,158.8 451.6,160.4 
	457,158.4 462.3,157.9 "/>
<polyline class="st7" points="355,137 360.3,137 365.6,137 371,136.9 376.4,136.5 381.8,136.2 387.1,135.9 392.5,135.8 397.9,135 
	403.2,135.1 408.6,134.5 414,134.7 419.4,134.6 424.7,134 430.1,135.2 435.5,135.2 440.8,135.2 446.2,133.6 451.6,135.1 457,134.7 
	462.3,134.5 "/>
<polyline class="st8" points="355,137 360.3,137 365.6,137 371,136.9 376.4,136.4 381.8,136 387.1,135.7 392.5,135.8 397.9,134.7 
	403.2,135 408.6,134.4 414,134.7 419.4,134.5 424.7,134 430.1,135.2 435.5,134.7 440.8,135.3 446.2,133.5 451.6,134.8 457,134.6 
	462.3,134.3 "/>
<polyline class="st9" points="355,137 360.3,139.9 365.6,154.8 371,166.6 376.4,172.6 381.8,173.7 387.1,174.3 392.5,174.8 
	397.9,171.6 403.2,171.3 408.6,169.1 414,168.9 419.4,167.1 424.7,166 430.1,164.9 435.5,163.1 440.8,162.1 446.2,159.8 
	451.6,161.2 457,159.1 462.3,159 "/>
<polyline class="st10" points="355,137 360.3,137 365.6,137.2 371,138.9 376.4,141.7 381.8,143.3 387.1,145.5 392.5,147.4 
	397.9,146.6 403.2,148.4 408.6,148.2 414,147.9 419.4,148.3 424.7,148.9 430.1,148.2 435.5,148.7 440.8,148.8 446.2,146.1 
	451.6,148.3 457,147.8 462.3,148.2 "/>
<polyline class="st11" points="355,137 360.3,137 365.6,137.1 371,137.6 376.4,138.3 381.8,139.7 387.1,140.2 392.5,141.2 
	397.9,140 403.2,140.6 408.6,140.2 414,141.2 419.4,141.2 424.7,139.6 430.1,140.4 435.5,140.5 440.8,140.6 446.2,138.3 
	451.6,140.1 457,140 462.3,138.3 "/>
<polyline class="st12" points="355,137 360.3,137 365.6,137.2 371,138.2 376.4,139.4 381.8,141.4 387.1,141.8 392.5,143 
	397.9,141.6 403.2,143 408.6,141.6 414,143 419.4,142.7 424.7,141.7 430.1,142.2 435.5,142.4 440.8,142.7 446.2,140.2 451.6,142.1 
	457,141.3 462.3,140.2 "/>
<polyline class="st13" points="355,137 360.3,137 365.6,137 371,137 376.4,137 381.8,137 387.1,137 392.5,137 397.9,137 403.2,137 
	408.6,137 414,137 419.4,137 424.7,137 430.1,137 435.5,137 440.8,137 446.2,137 451.6,137 457,137 462.3,137 "/>
<text transform="matrix(1 0 0 1 355 74.6338)" class="st14 st5">2. Exponential</text>
<rect x="543" y="83.3" class="st1" width="107.3" height="107.3"/>
<line class="st2" x1="543" y1="190.7" x2="650.3" y2="190.7"/>
<line class="st2" x1="543" y1="190.7" x2="543" y2="189.6"/>
<line class="st2" x1="650.3" y1="190.7" x2="650.3" y2="189.6"/>
<text transform="matrix(1 0 0 1 539 210.7998)" class="st3 st4 st5">1</text>
<text transform="matrix(1 0 0 1 634.667 210.7998)" class="st3 st4 st5">1000</text>
<line class="st2" x1="543" y1="190.7" x2="543" y2="83.3"/>
<polyline class="st6" points="543,137 548.3,168.6 553.6,176.6 559,176.9 564.4,174.1 569.8,172.3 575.1,170.7 580.5,168 
	585.9,164.5 591.2,162.4 596.6,160.9 602,157 607.4,158.1 612.7,156 618.1,156.1 623.5,154.8 628.8,151.4 634.2,150.9 639.6,152.4 
	645,150.8 650.3,150.8 "/>
<polyline class="st7" points="543,137 548.3,137 553.6,136.6 559,136.3 564.4,134.1 569.8,134.1 575.1,134.6 580.5,133.8 
	585.9,132.7 591.2,132.7 596.6,133 602,131.2 607.4,132 612.7,131.9 618.1,133.4 623.5,133.3 628.8,132.2 634.2,131.6 639.6,133.5 
	645,133.3 650.3,133.4 "/>
<polyline class="st8" points="543,137 548.3,137 553.6,136.6 559,136.2 564.4,134 569.8,133.9 575.1,134.5 580.5,133.8 585.9,132.4 
	591.2,132.5 596.6,132.9 602,131.1 607.4,131.7 612.7,131.7 618.1,133.2 623.5,133.1 628.8,132 634.2,131.3 639.6,133.2 645,133.1 
	650.3,133 "/>
<polyline class="st9" points="543,137 548.3,147.1 553.6,165.4 559,173.1 564.4,172.9 569.8,171.3 575.1,170.4 580.5,168.9 
	585.9,165.1 591.2,163.3 596.6,161.6 602,157.6 607.4,159 612.7,157.2 618.1,156.9 623.5,156.3 628.8,152.5 634.2,152.3 639.6,153 
	645,151.9 650.3,152.1 "/>
<polyline class="st10" points="543,137 548.3,149.9 553.6,162.3 559,167.8 564.4,168.2 569.8,167.5 575.1,167 580.5,164.9 
	585.9,161.9 591.2,160.4 596.6,159.4 602,155.2 607.4,157.3 612.7,155 618.1,155.1 623.5,154.4 628.8,150.9 634.2,151 639.6,151.7 
	645,150.7 650.3,150.8 "/>
<polyline class="st11" points="543,137 548.3,137 553.6,136.8 559,136.8 564.4,135.1 569.8,134.5 575.1,136.2 580.5,134.8 
	585.9,134.1 591.2,133.7 596.6,133.7 602,131.7 607.4,134.1 612.7,133.5 618.1,134.2 623.5,134.3 628.8,132.6 634.2,132.9 
	639.6,134.3 645,134.2 650.3,133.9 "/>
<polyline class="st12" points="543,137 548.3,137 553.6,137.2 559,137.5 564.4,136.1 569.8,136.2 575.1,138.1 580.5,137 
	585.9,135.9 591.2,135.3 596.6,135.8 602,133.5 607.4,135.8 612.7,136.1 618.1,135.5 623.5,136.1 628.8,134.4 634.2,135.3 
	639.6,135.5 645,135.3 650.3,135 "/>
<polyline class="st13" points="543,137 548.3,137 553.6,137 559,137 564.4,137 569.8,137 575.1,137 580.5,137 585.9,137 591.2,137 
	596.6,137 602,137 607.4,137 612.7,137 618.1,137 623.5,137 628.8,137 634.2,137 639.6,137 645,137 650.3,137 "/>
<text transform="matrix(1 0 0 1 543 74.6338)" class="st14 st5">3. Cubic</text>
<rect x="730.3" y="83.3" class="st1" width="107.3" height="107.3"/>
<line class="st2" x1="730.3" y1="190.7" x2="837.7" y2="190.7"/>
<line class="st2" x1="730.3" y1="190.7" x2="730.3" y2="189.6"/>
<line class="st2" x1="837.7" y1="190.7" x2="837.7" y2="189.6"/>
<text transform="matrix(1 0 0 1 726.333 210.7998)" class="st3 st4 st5">1</text>
<text transform="matrix(1 0 0 1 829.667 210.7998)" class="st3 st4 st5">10</text>
<line class="st2" x1="730.3" y1="190.7" x2="730.3" y2="83.3"/>
<polyline class="st6" points="730.3,138.6 742.3,151.7 754.2,161.6 766.1,166 778,164.4 790,162 801.9,160.7 813.8,156.6 
	825.7,155.6 837.7,151.4 "/>
<polyline class="st7" points="730.3,136.9 742.3,136.7 754.2,136.1 766.1,135.8 778,134.5 790,134.2 801.9,135.2 813.8,134.8 
	825.7,135 837.7,134.3 "/>
<polyline class="st8" points="730.3,136.9 742.3,136.6 754.2,136.1 766.1,135.8 778,134.5 790,133.9 801.9,135.1 813.8,134.7 
	825.7,134.6 837.7,134 "/>
<polyline class="st9" points="730.3,138.1 742.3,143.2 754.2,150.4 766.1,157.5 778,158.1 790,157.5 801.9,157.1 813.8,154.9 
	825.7,154.6 837.7,150.5 "/>
<polyline class="st10" points="730.3,139.2 742.3,140.2 754.2,140.3 766.1,140.7 778,140 790,139.6 801.9,139.4 813.8,138.6 
	825.7,137.5 837.7,136.7 "/>
<polyline class="st11" points="730.3,136.9 742.3,136.4 754.2,135.4 766.1,134.6 778,133.2 790,132.5 801.9,133.6 813.8,132.9 
	825.7,133.7 837.7,133.3 "/>
<polyline class="st12" points="730.3,136.9 742.3,136.5 754.2,135.4 766.1,134.6 778,132.5 790,131 801.9,132.1 813.8,130.7 
	825.7,131.3 837.7,130.3 "/>
<polyline class="st13" points="730.3,137 742.3,137 754.2,137 766.1,137 778,137 790,137 801.9,137 813.8,137 825.7,137 837.7,137 
	"/>
<text transform="matrix(1 0 0 1 730.333 74.6338)" class="st14 st5">4. Joint Normal</text>
<rect x="918.3" y="83.3" class="st1" width="107.3" height="107.3"/>
<line class="st2" x1="918.3" y1="190.7" x2="1025.7" y2="190.7"/>
<line class="st2" x1="918.3" y1="190.7" x2="918.3" y2="189.6"/>
<line class="st2" x1="1025.7" y1="190.7" x2="1025.7" y2="189.6"/>
<text transform="matrix(1 0 0 1 914.333 210.7998)" class="st3 st4 st5">1</text>
<text transform="matrix(1 0 0 1 1017.667 210.7998)" class="st3 st4 st5">20</text>
<line class="st2" x1="918.3" y1="190.7" x2="918.3" y2="83.3"/>
<polyline class="st6" points="918.3,190.7 924,157.8 929.6,163.2 935.3,165 940.9,166.2 946.6,166.7 952.2,165.7 957.9,166.4 
	963.5,164.3 969.2,163.6 974.8,163.5 980.5,162.6 986.1,161.7 991.8,160.3 997.4,159.8 1003.1,158.7 1008.7,159.9 1014.4,159.5 
	1020,157.2 1025.7,157.7 "/>
<polyline class="st7" points="918.3,190.7 924,136.5 929.6,136.3 935.3,136.1 940.9,135.9 946.6,135.7 952.2,135.8 957.9,135.9 
	963.5,135.6 969.2,135.6 974.8,135.7 980.5,135.6 986.1,135.7 991.8,135.5 997.4,135.7 1003.1,136 1008.7,135.6 1014.4,136 
	1020,135.2 1025.7,135.8 "/>
<polyline class="st8" points="918.3,190.7 924,136.5 929.6,136.3 935.3,136.1 940.9,135.8 946.6,135.8 952.2,135.8 957.9,136 
	963.5,135.5 969.2,135.6 974.8,135.7 980.5,135.7 986.1,135.9 991.8,135.5 997.4,135.8 1003.1,136.1 1008.7,135.5 1014.4,136.1 
	1020,135.2 1025.7,135.8 "/>
<polyline class="st9" points="918.3,137 924,143.4 929.6,146.8 935.3,148.9 940.9,151.2 946.6,153 952.2,154 957.9,154.5 
	963.5,154.6 969.2,154.5 974.8,155.8 980.5,155.5 986.1,154.9 991.8,154.3 997.4,154.2 1003.1,153.8 1008.7,155.3 1014.4,154.9 
	1020,153.4 1025.7,153.4 "/>
<polyline class="st10" points="918.3,137 924,141.2 929.6,142.6 935.3,144.1 940.9,145 946.6,145.5 952.2,145.7 957.9,146.5 
	963.5,146 969.2,145.6 974.8,147 980.5,147.2 986.1,146.6 991.8,145 997.4,146.1 1003.1,145.1 1008.7,145.5 1014.4,146.2 
	1020,145.2 1025.7,144.6 "/>
<polyline class="st11" points="918.3,137 924,136.5 929.6,135.9 935.3,135.8 940.9,135.1 946.6,135.2 952.2,135.1 957.9,135.3 
	963.5,134.7 969.2,134.4 974.8,134.6 980.5,134.8 986.1,134.8 991.8,133.7 997.4,133.9 1003.1,134.8 1008.7,134.4 1014.4,135.2 
	1020,134.4 1025.7,134.1 "/>
<polyline class="st12" points="918.3,137 924,136.6 929.6,136.1 935.3,135.9 940.9,135.5 946.6,135.4 952.2,135.2 957.9,136 
	963.5,135.1 969.2,134.8 974.8,135 980.5,135 986.1,135.4 991.8,134.2 997.4,134.8 1003.1,135.2 1008.7,135.1 1014.4,135.7 
	1020,135.2 1025.7,135.4 "/>
<polyline class="st13" points="918.3,137 924,137 929.6,137 935.3,137 940.9,137 946.6,137 952.2,137 957.9,137 963.5,137 
	969.2,137 974.8,137 980.5,137 986.1,137 991.8,137 997.4,137 1003.1,137 1008.7,137 1014.4,137 1020,137 1025.7,137 "/>
<text transform="matrix(1 0 0 1 918.333 74.6338)" class="st14 st5">5. Step Function</text>
<rect x="167.7" y="234" class="st1" width="107.3" height="107.3"/>
<line class="st2" x1="167.7" y1="341.3" x2="275" y2="341.3"/>
<line class="st2" x1="167.7" y1="341.3" x2="167.7" y2="340.3"/>
<line class="st2" x1="275" y1="341.3" x2="275" y2="340.3"/>
<text transform="matrix(1 0 0 1 163.667 361.4668)" class="st3 st4 st5">1</text>
<text transform="matrix(1 0 0 1 267 361.4668)" class="st3 st4 st5">20</text>
<line class="st2" x1="167.7" y1="341.3" x2="167.7" y2="234"/>
<polyline class="st6" points="167.7,287.7 173.3,287.7 179,287.7 184.6,287.9 190.3,288.7 195.9,291 201.6,293.6 207.2,295.1 
	212.9,295.5 218.5,295.9 224.2,294.6 229.8,294.1 235.5,292.2 241.1,291.2 246.8,288.8 252.4,288.3 258.1,285.3 263.7,286.4 
	269.4,284.7 275,284.3 "/>
<polyline class="st7" points="167.7,287.7 173.3,287.7 179,287.7 184.6,291.3 190.3,303.3 195.9,314.3 201.6,322.6 207.2,323 
	212.9,324.2 218.5,324.1 224.2,321.6 229.8,319.3 235.5,315.8 241.1,313.8 246.8,310.8 252.4,308.7 258.1,306.5 263.7,305.2 
	269.4,303.4 275,301.6 "/>
<polyline class="st8" points="167.7,287.7 173.3,287.7 179,287.7 184.6,290.6 190.3,301.8 195.9,312.6 201.6,321.3 207.2,322.1 
	212.9,323.4 218.5,323.5 224.2,320.9 229.8,318.7 235.5,315.4 241.1,313.5 246.8,310.4 252.4,308.3 258.1,306 263.7,304.9 
	269.4,303.1 275,301.3 "/>
<polyline class="st9" points="167.7,287.7 173.3,287.7 179,287.7 184.6,288.2 190.3,291.3 195.9,297.1 201.6,303.3 207.2,306.9 
	212.9,309.1 218.5,310.3 224.2,308.8 229.8,307.5 235.5,306.2 241.1,303.7 246.8,301.6 252.4,299.6 258.1,297.7 263.7,298.4 
	269.4,296.5 275,295.2 "/>
<polyline class="st10" points="167.7,287.7 173.3,287.7 179,287.7 184.6,288.6 190.3,294.6 195.9,303.8 201.6,312.7 207.2,315.4 
	212.9,319.2 218.5,320.6 224.2,318.7 229.8,317.1 235.5,314.6 241.1,312 246.8,309.5 252.4,307.5 258.1,304.7 263.7,304.2 
	269.4,302.3 275,301.3 "/>
<polyline class="st11" points="167.7,335 173.3,332.9 179,333.2 184.6,333.5 190.3,333.7 195.9,333.9 201.6,334.6 207.2,332.8 
	212.9,330.9 218.5,328.3 224.2,325.2 229.8,321.8 235.5,318.2 241.1,315.4 246.8,312.1 252.4,309.9 258.1,307.2 263.7,305.7 
	269.4,304.2 275,302.1 "/>
<polyline class="st12" points="167.7,335 173.3,333 179,333.4 184.6,333.7 190.3,333.7 195.9,334.2 201.6,334.8 207.2,332.8 
	212.9,330.9 218.5,328.2 224.2,325.3 229.8,321.8 235.5,318.2 241.1,315.5 246.8,312.2 252.4,310 258.1,307.3 263.7,305.9 
	269.4,304.2 275,302 "/>
<polyline class="st13" points="167.7,287.7 173.3,287.7 179,287.7 184.6,287.7 190.3,287.7 195.9,287.7 201.6,287.7 207.2,287.7 
	212.9,287.7 218.5,287.7 224.2,287.7 229.8,287.7 235.5,287.7 241.1,287.7 246.8,287.7 252.4,287.7 258.1,287.7 263.7,287.7 
	269.4,287.7 275,287.7 "/>
<text transform="matrix(1 0 0 1 167.667 225.2998)" class="st14 st5">6. Quadratic</text>
<rect x="355" y="234" class="st1" width="107.3" height="107.3"/>
<line class="st2" x1="355" y1="341.3" x2="462.3" y2="341.3"/>
<line class="st2" x1="355" y1="341.3" x2="355" y2="340.3"/>
<line class="st2" x1="462.3" y1="341.3" x2="462.3" y2="340.3"/>
<text transform="matrix(1 0 0 1 351 361.4668)" class="st3 st4 st5">1</text>
<text transform="matrix(1 0 0 1 454.333 361.4668)" class="st3 st4 st5">20</text>
<line class="st2" x1="355" y1="341.3" x2="355" y2="234"/>
<polyline class="st6" points="355,290.3 360.6,287.7 366.3,288.1 371.9,288.7 377.6,288.8 383.2,289.2 388.9,291.6 394.5,292.1 
	400.2,292.1 405.8,293.3 411.5,292.4 417.1,291.3 422.8,290.6 428.4,291.8 434.1,290 439.7,290.1 445.4,289.4 451,289.2 
	456.7,288.8 462.3,288.4 "/>
<polyline class="st7" points="355,287.7 360.6,292.2 366.3,304.8 371.9,314.8 377.6,317.3 383.2,318.1 388.9,317.5 394.5,317.1 
	400.2,316.1 405.8,315.3 411.5,312.2 417.1,310.9 422.8,309.3 428.4,307.1 434.1,305.7 439.7,305.1 445.4,303.8 451,302.4 
	456.7,301.6 462.3,300.7 "/>
<polyline class="st8" points="355,287.7 360.6,290.8 366.3,301.5 371.9,311.6 377.6,315 383.2,316.4 388.9,315.7 394.5,315.9 
	400.2,314.8 405.8,314 411.5,311.1 417.1,309.8 422.8,308.4 428.4,306.1 434.1,305 439.7,304.2 445.4,302.7 451,301.6 456.7,301.1 
	462.3,299.9 "/>
<polyline class="st9" points="355,287.7 360.6,287.7 366.3,288.8 371.9,294.6 377.6,299 383.2,303.1 388.9,305.1 394.5,306.3 
	400.2,306.3 405.8,306.2 411.5,304.6 417.1,303.1 422.8,303 428.4,301.5 434.1,301.4 439.7,299.6 445.4,298.7 451,298 456.7,297.2 
	462.3,296.4 "/>
<polyline class="st10" points="355,287.7 360.6,288.7 366.3,301.3 371.9,314.5 377.6,318.5 383.2,320.6 388.9,320.6 394.5,320.4 
	400.2,319.4 405.8,318 411.5,315.1 417.1,313.5 422.8,312 428.4,310.4 434.1,308.5 439.7,307.3 445.4,306.2 451,304.5 456.7,303.9 
	462.3,302.7 "/>
<polyline class="st11" points="355,339.4 360.6,327.5 366.3,326.9 371.9,326.7 377.6,323.9 383.2,321.7 388.9,319.6 394.5,318.1 
	400.2,315.9 405.8,314.7 411.5,312 417.1,309.9 422.8,307.9 428.4,306 434.1,304 439.7,303.5 445.4,302 451,300.7 456.7,300 
	462.3,299 "/>
<polyline class="st12" points="355,339.4 360.6,327.5 366.3,327.2 371.9,326.8 377.6,324 383.2,321.8 388.9,320 394.5,318 
	400.2,316.1 405.8,314.8 411.5,312.2 417.1,310.2 422.8,307.9 428.4,306 434.1,304.2 439.7,303.6 445.4,302.2 451,300.9 
	456.7,300.2 462.3,299.3 "/>
<polyline class="st13" points="355,287.7 360.6,287.7 366.3,287.7 371.9,287.7 377.6,287.7 383.2,287.7 388.9,287.7 394.5,287.7 
	400.2,287.7 405.8,287.7 411.5,287.7 417.1,287.7 422.8,287.7 428.4,287.7 434.1,287.7 439.7,287.7 445.4,287.7 451,287.7 
	456.7,287.7 462.3,287.7 "/>
<text transform="matrix(1 0 0 1 355 225.2998)" class="st14 st5">7. W Shape</text>
<rect x="543" y="234" class="st1" width="107.3" height="107.3"/>
<line class="st2" x1="543" y1="341.3" x2="650.3" y2="341.3"/>
<line class="st2" x1="543" y1="341.3" x2="543" y2="340.3"/>
<line class="st2" x1="650.3" y1="341.3" x2="650.3" y2="340.3"/>
<text transform="matrix(1 0 0 1 539 361.4668)" class="st3 st4 st5">1</text>
<text transform="matrix(1 0 0 1 642.333 361.4668)" class="st3 st4 st5">20</text>
<line class="st2" x1="543" y1="341.3" x2="543" y2="234"/>
<polyline class="st6" points="543,339.4 548.6,329.2 554.3,333.8 559.9,323.9 565.6,335.3 571.2,326.6 576.9,323.1 582.5,312.3 
	588.2,309.7 593.8,305 599.5,301.2 605.1,297.8 610.8,296.5 616.4,295.6 622.1,293.6 627.7,292.5 633.4,292.4 639,291.8 644.7,291 
	650.3,290.7 "/>
<polyline class="st7" points="543,326.3 548.6,321.1 554.3,287.7 559.9,287.6 565.6,286.7 571.2,283.8 576.9,281 582.5,278.2 
	588.2,278.4 593.8,280.5 599.5,278.5 605.1,280.3 610.8,280.9 616.4,283.4 622.1,282.9 627.7,283.1 633.4,283.1 639,284 
	644.7,284.4 650.3,285.4 "/>
<polyline class="st8" points="543,326.4 548.6,320.5 554.3,287.7 559.9,287.6 565.6,286.7 571.2,284 576.9,281.2 582.5,278.2 
	588.2,278.7 593.8,280.7 599.5,278.7 605.1,280.3 610.8,281.3 616.4,283.4 622.1,283 627.7,283.3 633.4,283.1 639,284.1 
	644.7,284.4 650.3,285.4 "/>
<polyline class="st9" points="543,287.7 548.6,288.7 554.3,299.3 559.9,299.5 565.6,323.7 571.2,316.3 576.9,318.2 582.5,309.1 
	588.2,307.2 593.8,302.5 599.5,299.7 605.1,296.6 610.8,295.4 616.4,294.2 622.1,293.2 627.7,291.7 633.4,291.4 639,290.9 
	644.7,290.3 650.3,290.1 "/>
<polyline class="st10" points="543,317.6 548.6,291.7 554.3,287.7 559.9,288.4 565.6,291.2 571.2,293.3 576.9,294.7 582.5,293.1 
	588.2,292.7 593.8,293 599.5,291 605.1,289.9 610.8,289.7 616.4,290 622.1,289.4 627.7,288.3 633.4,288.5 639,288.4 644.7,288 
	650.3,288.9 "/>
<polyline class="st11" points="543,334.3 548.6,337 554.3,289.2 559.9,288.4 565.6,290.7 571.2,285.8 576.9,287.7 582.5,280.3 
	588.2,283.6 593.8,282.1 599.5,283.1 605.1,281.9 610.8,284.2 616.4,283.1 622.1,284.2 627.7,283.7 633.4,284.8 639,284.1 
	644.7,285 650.3,285.8 "/>
<polyline class="st12" points="543,334.3 548.6,336.8 554.3,289.5 559.9,288.8 565.6,291.5 571.2,286 576.9,288.3 582.5,280.1 
	588.2,284.3 593.8,282.9 599.5,282.9 605.1,281.9 610.8,284.5 616.4,283.5 622.1,284.6 627.7,284.1 633.4,285.1 639,284.4 
	644.7,285.4 650.3,285.8 "/>
<polyline class="st13" points="543,287.7 548.6,287.7 554.3,287.7 559.9,287.7 565.6,287.7 571.2,287.7 576.9,287.7 582.5,287.7 
	588.2,287.7 593.8,287.7 599.5,287.7 605.1,287.7 610.8,287.7 616.4,287.7 622.1,287.7 627.7,287.7 633.4,287.7 639,287.7 
	644.7,287.7 650.3,287.7 "/>
<text transform="matrix(1 0 0 1 543 225.2998)" class="st14 st5">8. Spiral</text>
<rect x="730.3" y="234" class="st1" width="107.3" height="107.3"/>
<line class="st2" x1="730.3" y1="341.3" x2="837.7" y2="341.3"/>
<line class="st2" x1="730.3" y1="341.3" x2="730.3" y2="340.3"/>
<line class="st2" x1="837.7" y1="341.3" x2="837.7" y2="340.3"/>
<text transform="matrix(1 0 0 1 726.333 361.4668)" class="st3 st4 st5">1</text>
<text transform="matrix(1 0 0 1 825.667 361.4668)" class="st3 st4 st5">100</text>
<line class="st2" x1="730.3" y1="341.3" x2="730.3" y2="234"/>
<polyline class="st6" points="730.3,341.3 734.7,301.3 740.1,312.9 745.5,317.7 750.9,316.6 756.4,315.6 761.8,312.7 767.2,310.2 
	772.6,307.9 778,305.7 783.5,304.4 788.9,303.2 794.3,301.6 799.7,300.5 805.1,299.8 810.6,298.4 816,298.2 821.4,297.3 826.8,297 
	832.2,296.1 837.7,295.9 "/>
<polyline class="st7" points="730.3,341.3 734.7,287.9 740.1,291.9 745.5,296.9 750.9,300.1 756.4,301.3 761.8,301.7 767.2,300.7 
	772.6,300.3 778,299.5 783.5,299.3 788.9,297.9 794.3,297.9 799.7,296.9 805.1,295.8 810.6,295.9 816,295.3 821.4,294.1 
	826.8,294.2 832.2,293.5 837.7,293.7 "/>
<polyline class="st8" points="730.3,341.3 734.7,287.9 740.1,291.8 745.5,296.7 750.9,299.8 756.4,301.1 761.8,301.8 767.2,300.5 
	772.6,300.3 778,299.4 783.5,299.2 788.9,297.8 794.3,297.9 799.7,296.8 805.1,295.8 810.6,295.7 816,295.3 821.4,294 826.8,294.1 
	832.2,293.5 837.7,293.7 "/>
<polyline class="st9" points="730.3,287.7 734.7,287.6 740.1,288.1 745.5,291 750.9,293.7 756.4,297.2 761.8,299.5 767.2,300.9 
	772.6,301.4 778,300.9 783.5,300.5 788.9,301.3 794.3,300.1 799.7,299.4 805.1,299.7 810.6,298.6 816,298.9 821.4,298.2 826.8,298 
	832.2,297.4 837.7,297.1 "/>
<polyline class="st10" points="730.3,287.7 734.7,287.6 740.1,286.9 745.5,284.8 750.9,281.7 756.4,279.8 761.8,278.5 767.2,277.8 
	772.6,277.8 778,277.9 783.5,278.8 788.9,279.6 794.3,279.7 799.7,280.2 805.1,279.8 810.6,281.2 816,281.9 821.4,281.9 
	826.8,282.2 832.2,283.2 837.7,282.9 "/>
<polyline class="st11" points="730.3,338.3 734.7,337.1 740.1,337.6 745.5,335 750.9,331.1 756.4,327.2 761.8,322.7 767.2,318.9 
	772.6,316.5 778,313.2 783.5,311 788.9,309.7 794.3,307.7 799.7,306.2 805.1,304.6 810.6,303.7 816,303 821.4,301.6 826.8,301.3 
	832.2,300.4 837.7,299.8 "/>
<polyline class="st12" points="730.3,338.3 734.7,337.1 740.1,337.5 745.5,335 750.9,330.9 756.4,327.3 761.8,322.8 767.2,318.9 
	772.6,316.3 778,313.3 783.5,310.9 788.9,309.8 794.3,307.5 799.7,306.2 805.1,304.6 810.6,303.5 816,303.3 821.4,301.5 
	826.8,301.5 832.2,300.4 837.7,299.7 "/>
<polyline class="st13" points="730.3,287.7 734.7,287.7 740.1,287.7 745.5,287.7 750.9,287.7 756.4,287.7 761.8,287.7 767.2,287.7 
	772.6,287.7 778,287.7 783.5,287.7 788.9,287.7 794.3,287.7 799.7,287.7 805.1,287.7 810.6,287.7 816,287.7 821.4,287.7 
	826.8,287.7 832.2,287.7 837.7,287.7 "/>
<text transform="matrix(1 0 0 1 730.333 225.2998)" class="st14 st5">9. Bernoulli</text>
<rect x="918.3" y="234" class="st1" width="107.3" height="107.3"/>
<line class="st2" x1="918.3" y1="341.3" x2="1025.7" y2="341.3"/>
<line class="st2" x1="918.3" y1="341.3" x2="918.3" y2="340.3"/>
<line class="st2" x1="1025.7" y1="341.3" x2="1025.7" y2="340.3"/>
<text transform="matrix(1 0 0 1 914.333 361.4668)" class="st3 st4 st5">1</text>
<text transform="matrix(1 0 0 1 1013.667 361.4668)" class="st3 st4 st5">100</text>
<line class="st2" x1="918.3" y1="341.3" x2="918.3" y2="234"/>
<polyline class="st6" points="918.3,310.7 922.7,337.2 928.1,338.1 933.5,338.4 938.9,337.4 944.4,334.9 949.8,331.6 955.2,328.4 
	960.6,323.4 966,320.6 971.5,318 976.9,315.4 982.3,313.3 987.7,311.5 993.1,310.2 998.6,308.6 1004,307.2 1009.4,306.2 
	1014.8,304.3 1020.2,303.4 1025.7,302.9 "/>
<polyline class="st7" points="918.3,287.7 922.7,287.8 928.1,305.4 933.5,319.5 938.9,325.5 944.4,326.7 949.8,324.6 955.2,322.7 
	960.6,319.4 966,317.5 971.5,315.2 976.9,312.8 982.3,311 987.7,309.6 993.1,307.7 998.6,306.4 1004,305.4 1009.4,304.2 
	1014.8,303.1 1020.2,302.3 1025.7,301.5 "/>
<polyline class="st8" points="918.3,287.7 922.7,287.8 928.1,305.4 933.5,319.6 938.9,325.8 944.4,326.8 949.8,324.7 955.2,322.9 
	960.6,319.4 966,317.5 971.5,315.2 976.9,313 982.3,310.9 987.7,309.7 993.1,307.7 998.6,306.4 1004,305.5 1009.4,304.3 
	1014.8,303.1 1020.2,302.3 1025.7,301.4 "/>
<polyline class="st9" points="918.3,287.7 922.7,287.7 928.1,292.1 933.5,309.3 938.9,321 944.4,326.3 949.8,326.1 955.2,325.1 
	960.6,320 966,318.4 971.5,315.7 976.9,313.8 982.3,312.1 987.7,310.1 993.1,309 998.6,307.5 1004,306.6 1009.4,305.5 1014.8,303.5 
	1020.2,302.8 1025.7,302.1 "/>
<polyline class="st10" points="918.3,287.7 922.7,287.7 928.1,288.9 933.5,298.6 938.9,309.2 944.4,315.1 949.8,315.7 955.2,315.8 
	960.6,313.4 966,312.2 971.5,311.5 976.9,309.6 982.3,308.3 987.7,307.2 993.1,305.2 998.6,304.3 1004,303.6 1009.4,303.2 
	1014.8,301.8 1020.2,301.1 1025.7,300.6 "/>
<polyline class="st11" points="918.3,338.2 922.7,338.4 928.1,338.8 933.5,338.5 938.9,337.8 944.4,335.1 949.8,331.5 955.2,328.1 
	960.6,323.6 966,321.1 971.5,318.4 976.9,315.6 982.3,313.2 987.7,311.7 993.1,309.9 998.6,308.5 1004,307.3 1009.4,306.3 
	1014.8,304.7 1020.2,303.6 1025.7,302.8 "/>
<polyline class="st12" points="918.3,338.2 922.7,338.7 928.1,338.8 933.5,338.8 938.9,338.2 944.4,335.2 949.8,331.8 955.2,328.4 
	960.6,323.7 966,321.2 971.5,318.5 976.9,315.8 982.3,313.2 987.7,311.6 993.1,309.9 998.6,308.7 1004,307.7 1009.4,306.3 
	1014.8,304.4 1020.2,303.4 1025.7,303.3 "/>
<polyline class="st13" points="918.3,287.7 922.7,287.7 928.1,287.7 933.5,287.7 938.9,287.7 944.4,287.7 949.8,287.7 955.2,287.7 
	960.6,287.7 966,287.7 971.5,287.7 976.9,287.7 982.3,287.7 987.7,287.7 993.1,287.7 998.6,287.7 1004,287.7 1009.4,287.7 
	1014.8,287.7 1020.2,287.7 1025.7,287.7 "/>
<text transform="matrix(1 0 0 1 918.333 225.2998)" class="st14 st5">10. Logarithmic</text>
<rect x="167.7" y="384.7" class="st1" width="107.3" height="107.3"/>
<line class="st2" x1="167.7" y1="492" x2="275" y2="492"/>
<line class="st2" x1="167.7" y1="492" x2="167.7" y2="490.9"/>
<line class="st2" x1="275" y1="492" x2="275" y2="490.9"/>
<text transform="matrix(1 0 0 1 163.667 512.1338)" class="st3 st4 st5">1</text>
<text transform="matrix(1 0 0 1 267 512.1338)" class="st3 st4 st5">20</text>
<line class="st2" x1="167.7" y1="492" x2="167.7" y2="384.7"/>
<polyline class="st6" points="167.7,459.6 173.3,463.8 179,473.9 184.6,478.4 190.3,481.5 195.9,483 201.6,480.1 207.2,475.3 
	212.9,469.5 218.5,464.6 224.2,459.9 229.8,456.5 235.5,452.8 241.1,449.6 246.8,448.1 252.4,446.9 258.1,446 263.7,444.8 
	269.4,442.7 275,443.3 "/>
<polyline class="st7" points="167.7,438.3 173.3,438.3 179,438.5 184.6,446.9 190.3,463.3 195.9,471.2 201.6,472.5 207.2,471.4 
	212.9,467.2 218.5,462.5 224.2,458.2 229.8,455.5 235.5,452.4 241.1,449.5 246.8,448.2 252.4,446.7 258.1,445.9 263.7,444.8 
	269.4,443.6 275,443.4 "/>
<polyline class="st8" points="167.7,438.3 173.3,438.3 179,438.5 184.6,446.8 190.3,463.4 195.9,471.1 201.6,472.6 207.2,471.2 
	212.9,467.1 218.5,462.4 224.2,458.2 229.8,455.4 235.5,452.4 241.1,449.5 246.8,448.2 252.4,446.8 258.1,445.9 263.7,444.6 
	269.4,443.6 275,443.4 "/>
<polyline class="st9" points="167.7,438.3 173.3,438.3 179,438.3 184.6,439.3 190.3,444.4 195.9,450.3 201.6,453.8 207.2,454.8 
	212.9,452.2 218.5,449.1 224.2,446.8 229.8,445.9 235.5,442.2 241.1,441.1 246.8,440.8 252.4,439.3 258.1,439.6 263.7,439.2 
	269.4,437.5 275,438 "/>
<polyline class="st10" points="167.7,438.3 173.3,438.3 179,438.4 184.6,440.1 190.3,448.2 195.9,456.9 201.6,461.7 207.2,462.5 
	212.9,460.7 218.5,457.4 224.2,455 229.8,452.2 235.5,449.8 241.1,446.7 246.8,446.2 252.4,445 258.1,444.4 263.7,443.5 
	269.4,442.6 275,442.6 "/>
<polyline class="st11" points="167.7,490.5 173.3,488.8 179,489.2 184.6,488.8 190.3,488.8 195.9,487.9 201.6,484.4 207.2,479.2 
	212.9,473.2 218.5,467.7 224.2,462.4 229.8,458.4 235.5,455.2 241.1,452.1 246.8,450.4 252.4,448.7 258.1,447.4 263.7,446.6 
	269.4,444.7 275,444.6 "/>
<polyline class="st12" points="167.7,490.5 173.3,488.7 179,489.3 184.6,488.9 190.3,489 195.9,488 201.6,484.4 207.2,479.1 
	212.9,473.4 218.5,467.6 224.2,462.6 229.8,458.5 235.5,455.2 241.1,452 246.8,450.3 252.4,448.7 258.1,447.2 263.7,446.6 
	269.4,444.7 275,444.8 "/>
<polyline class="st13" points="167.7,438.3 173.3,438.3 179,438.3 184.6,438.3 190.3,438.3 195.9,438.3 201.6,438.3 207.2,438.3 
	212.9,438.3 218.5,438.3 224.2,438.3 229.8,438.3 235.5,438.3 241.1,438.3 246.8,438.3 252.4,438.3 258.1,438.3 263.7,438.3 
	269.4,438.3 275,438.3 "/>
<text transform="matrix(1 0 0 1 167.667 375.9668)" class="st14 st5">11. Fourth Root</text>
<rect x="355" y="384.7" class="st1" width="107.3" height="107.3"/>
<line class="st2" x1="355" y1="492" x2="462.3" y2="492"/>
<line class="st2" x1="355" y1="492" x2="355" y2="490.9"/>
<line class="st2" x1="462.3" y1="492" x2="462.3" y2="490.9"/>
<text transform="matrix(1 0 0 1 351 512.1338)" class="st3 st4 st5">1</text>
<text transform="matrix(1 0 0 1 454.333 512.1338)" class="st3 st4 st5">10</text>
<line class="st2" x1="355" y1="492" x2="355" y2="384.7"/>
<polyline class="st6" points="355,466.8 366.9,469.8 378.9,472.6 390.8,477 402.7,482.3 414.6,485.7 426.6,485.6 438.5,459.3 
	450.4,441.6 462.3,438.9 "/>
<polyline class="st7" points="355,457.3 366.9,463.4 378.9,467.1 390.8,471.8 402.7,477.7 414.6,482.8 426.6,483.9 438.5,458.5 
	450.4,441.4 462.3,438.9 "/>
<polyline class="st8" points="355,457.3 366.9,463.4 378.9,467.1 390.8,471.8 402.7,477.7 414.6,482.7 426.6,483.8 438.5,458.5 
	450.4,441.4 462.3,438.9 "/>
<polyline class="st9" points="355,438.3 366.9,438.3 378.9,438.3 390.8,438.3 402.7,441.2 414.6,459.6 426.6,477.3 438.5,457.7 
	450.4,441.1 462.3,438.7 "/>
<polyline class="st10" points="355,477.1 366.9,479.9 378.9,480.5 390.8,482.4 402.7,484.6 414.6,486.7 426.6,485.8 438.5,459.2 
	450.4,441.5 462.3,438.9 "/>
<polyline class="st11" points="355,465.3 366.9,468.5 378.9,470.8 390.8,474 402.7,478.4 414.6,482.8 426.6,483.9 438.5,458.6 
	450.4,441.4 462.3,438.8 "/>
<polyline class="st12" points="355,465.3 366.9,468.5 378.9,470.7 390.8,474.2 402.7,478.7 414.6,483.1 426.6,483.9 438.5,458.5 
	450.4,441.3 462.3,438.8 "/>
<polyline class="st13" points="355,438.3 366.9,438.3 378.9,438.3 390.8,438.3 402.7,438.3 414.6,438.3 426.6,438.3 438.5,438.3 
	450.4,438.3 462.3,438.3 "/>
<text transform="matrix(1 0 0 1 355.333 376)" class="st14 st5">12. Sine Period 4</text>
<path d="M469.4,375.8c0,0,0-0.1,0.1-0.2c0.3-0.5,0.5-1.1,0.7-1.6c0.2-0.5,0.4-1,0.6-1.5c0.2-0.5,0.3-1,0.5-1.6h-0.9
	c0,0-0.1,0.1-0.4,0.3c-0.2,0.2-0.5,0.5-0.7,0.8c0,0-0.3,0.1-0.8,0.1h-0.2c-0.1,0-0.1,0-0.1-0.1c0,0,0,0,0-0.1c0.3-0.5,0.6-1,1-1.3
	c0.3-0.4,0.7-0.5,1.2-0.5h5.1c0.5,0,0.8,0,0.9,0.1c0.1,0.1,0.1,0.1,0.1,0.3c0,0.1,0,0.2-0.1,0.4c-0.1,0.1-0.4,0.2-1,0.2h-1.1
	c-0.2,0.7-0.2,1.5-0.2,2.1c0,0.9,0.2,1.7,0.5,2.4c0,0,0,0.1,0,0.2c0,0.1,0,0.2-0.1,0.3c-0.1,0.1-0.1,0.2-0.2,0.2
	c-0.1,0.1-0.4,0.1-1,0.1c-0.2,0-0.4-0.2-0.5-0.6c-0.1-0.4-0.1-0.8-0.1-1.2c0-0.5,0-1,0.1-1.5c0.1-0.5,0.2-1.2,0.4-2h-0.9
	c-0.7,3-1.2,4.6-1.3,4.9c-0.1,0.3-0.5,0.4-1.2,0.4c-0.1,0-0.2,0-0.3-0.1C469.5,376,469.4,375.9,469.4,375.8z"/>
<rect x="543" y="384.7" class="st1" width="107.3" height="107.3"/>
<line class="st2" x1="543" y1="492" x2="650.3" y2="492"/>
<line class="st2" x1="543" y1="492" x2="543" y2="490.9"/>
<line class="st2" x1="650.3" y1="492" x2="650.3" y2="490.9"/>
<text transform="matrix(1 0 0 1 539 512.1338)" class="st3 st4 st5">1</text>
<text transform="matrix(1 0 0 1 642.333 512.1338)" class="st3 st4 st5">10</text>
<line class="st2" x1="543" y1="492" x2="543" y2="384.7"/>
<polyline class="st6" points="543,487.6 554.9,444 566.9,438.8 578.8,438.1 590.7,438.2 602.6,438.3 614.6,438.2 626.5,438.3 
	638.4,437.9 650.3,438.4 "/>
<polyline class="st7" points="543,487.6 554.9,444.2 566.9,438.4 578.8,438.3 590.7,438.4 602.6,438.4 614.6,438.4 626.5,438.3 
	638.4,438.3 650.3,438.3 "/>
<polyline class="st8" points="543,487.5 554.9,444.2 566.9,438.5 578.8,438.3 590.7,438.4 602.6,438.4 614.6,438.4 626.5,438.4 
	638.4,438.3 650.3,438.3 "/>
<polyline class="st9" points="543,484.2 554.9,443.8 566.9,438.7 578.8,438.1 590.7,438.3 602.6,438.5 614.6,438.2 626.5,438.3 
	638.4,438.3 650.3,438.3 "/>
<polyline class="st10" points="543,488.1 554.9,444.3 566.9,438.4 578.8,438.2 590.7,438.2 602.6,438.3 614.6,438.2 626.5,438.3 
	638.4,438 650.3,438.3 "/>
<polyline class="st11" points="543,487.3 554.9,444.3 566.9,438.5 578.8,438.1 590.7,438 602.6,438.3 614.6,438.6 626.5,438.3 
	638.4,438.4 650.3,438.1 "/>
<polyline class="st12" points="543,487.3 554.9,444.4 566.9,438.4 578.8,438.1 590.7,438 602.6,438.4 614.6,438.5 626.5,438.3 
	638.4,438.4 650.3,438.3 "/>
<polyline class="st13" points="543,438.3 554.9,438.3 566.9,438.3 578.8,438.3 590.7,438.3 602.6,438.3 614.6,438.3 626.5,438.3 
	638.4,438.3 650.3,438.3 "/>
<text transform="matrix(1 0 0 1 543.333 376)" class="st14 st5">13. Sine Period 16</text>
<path d="M664.7,375.8c0,0,0-0.1,0.1-0.2c0.3-0.5,0.5-1.1,0.7-1.6c0.2-0.5,0.4-1,0.6-1.5c0.2-0.5,0.3-1,0.5-1.6h-0.9
	c0,0-0.1,0.1-0.4,0.3c-0.2,0.2-0.5,0.5-0.7,0.8c0,0-0.3,0.1-0.8,0.1h-0.2c-0.1,0-0.1,0-0.1-0.1c0,0,0,0,0-0.1c0.3-0.5,0.6-1,1-1.3
	c0.3-0.4,0.7-0.5,1.2-0.5h5.1c0.5,0,0.8,0,0.9,0.1c0.1,0.1,0.1,0.1,0.1,0.3c0,0.1,0,0.2-0.1,0.4c-0.1,0.1-0.4,0.2-1,0.2h-1.1
	c-0.2,0.7-0.2,1.5-0.2,2.1c0,0.9,0.2,1.7,0.5,2.4c0,0,0,0.1,0,0.2c0,0.1,0,0.2-0.1,0.3c-0.1,0.1-0.1,0.2-0.2,0.2
	c-0.1,0.1-0.4,0.1-1,0.1c-0.2,0-0.4-0.2-0.5-0.6c-0.1-0.4-0.1-0.8-0.1-1.2c0-0.5,0-1,0.1-1.5c0.1-0.5,0.2-1.2,0.4-2h-0.9
	c-0.7,3-1.2,4.6-1.3,4.9c-0.1,0.3-0.5,0.4-1.2,0.4c-0.1,0-0.2,0-0.3-0.1C664.8,376,664.7,375.9,664.7,375.8z"/>
<rect x="730.3" y="384.7" class="st1" width="107.3" height="107.3"/>
<line class="st2" x1="730.3" y1="492" x2="837.7" y2="492"/>
<line class="st2" x1="730.3" y1="492" x2="730.3" y2="490.9"/>
<line class="st2" x1="837.7" y1="492" x2="837.7" y2="490.9"/>
<text transform="matrix(1 0 0 1 726.333 512.1338)" class="st3 st4 st5">1</text>
<text transform="matrix(1 0 0 1 829.667 512.1338)" class="st3 st4 st5">40</text>
<line class="st2" x1="730.3" y1="492" x2="730.3" y2="384.7"/>
<polyline class="st6" points="730.3,472.4 733.1,471.6 738.6,469.6 744.1,467.1 749.6,465.3 755.1,462.9 760.6,460.3 766.1,457.9 
	771.6,456.3 777.1,454.8 782.6,453.3 788.1,451.6 793.6,451.2 799.1,450.3 804.6,449 810.1,447.5 815.6,447.7 821.2,447 
	826.7,446.4 832.2,445.7 837.7,445.5 "/>
<polyline class="st7" points="730.3,461.6 733.1,462.5 738.6,461.9 744.1,460.2 749.6,459.4 755.1,457 760.6,455.2 766.1,452.8 
	771.6,451.1 777.1,450.2 782.6,448.3 788.1,446.8 793.6,446.6 799.1,445.2 804.6,444.6 810.1,443.3 815.6,443.2 821.2,442.8 
	826.7,442.5 832.2,442 837.7,441.8 "/>
<polyline class="st8" points="730.3,462 733.1,462.9 738.6,462.3 744.1,460.5 749.6,459.6 755.1,457.2 760.6,455.4 766.1,453 
	771.6,451.3 777.1,450.4 782.6,448.5 788.1,447 793.6,446.8 799.1,445.4 804.6,444.8 810.1,443.4 815.6,443.4 821.2,442.9 
	826.7,442.6 832.2,442.1 837.7,441.9 "/>
<polyline class="st9" points="730.3,436.3 733.1,437.1 738.6,436 744.1,436 749.6,437.2 755.1,437.3 760.6,438.1 766.1,437.6 
	771.6,437.8 777.1,438.2 782.6,437.8 788.1,437.3 793.6,437.7 799.1,438.5 804.6,437.8 810.1,437.7 815.6,438 821.2,438.5 
	826.7,437.8 832.2,438.6 837.7,438.6 "/>
<polyline class="st10" points="730.3,445.3 733.1,445.7 738.6,445.1 744.1,444.8 749.6,446 755.1,446.4 760.6,446.4 766.1,444.9 
	771.6,444.2 777.1,443.4 782.6,442.1 788.1,441.3 793.6,441.1 799.1,439.5 804.6,439.3 810.1,438.8 815.6,438.5 821.2,438.5 
	826.7,438.2 832.2,438.1 837.7,438.3 "/>
<polyline class="st11" points="730.3,471.3 733.1,470.5 738.6,468.5 744.1,465.9 749.6,464.2 755.1,461.5 760.6,459.1 766.1,456.8 
	771.6,454.9 777.1,453.6 782.6,452.1 788.1,450.2 793.6,449.8 799.1,448.8 804.6,447.7 810.1,446.2 815.6,446.2 821.2,445.5 
	826.7,445 832.2,444.4 837.7,444 "/>
<polyline class="st12" points="730.3,471.3 733.1,470.5 738.6,468.5 744.1,465.9 749.6,464.2 755.1,461.5 760.6,459.1 766.1,456.7 
	771.6,454.9 777.1,453.5 782.6,452.1 788.1,450.1 793.6,449.8 799.1,448.8 804.6,447.5 810.1,446.1 815.6,446.1 821.2,445.3 
	826.7,444.9 832.2,444.3 837.7,444 "/>
<polyline class="st13" points="730.3,438.3 733.1,438.3 738.6,438.3 744.1,438.3 749.6,438.3 755.1,438.3 760.6,438.3 766.1,438.3 
	771.6,438.3 777.1,438.3 782.6,438.3 788.1,438.3 793.6,438.3 799.1,438.3 804.6,438.3 810.1,438.3 815.6,438.3 821.2,438.3 
	826.7,438.3 832.2,438.3 837.7,438.3 "/>
<text transform="matrix(1 0 0 1 730.333 375.9668)" class="st14 st5">14. Square</text>
<rect x="918.3" y="384.7" class="st1" width="107.3" height="107.3"/>
<line class="st2" x1="918.3" y1="492" x2="1025.7" y2="492"/>
<line class="st2" x1="918.3" y1="492" x2="918.3" y2="490.9"/>
<line class="st2" x1="1025.7" y1="492" x2="1025.7" y2="490.9"/>
<text transform="matrix(1 0 0 1 914.333 512.1338)" class="st3 st4 st5">1</text>
<text transform="matrix(1 0 0 1 1017.667 512.1338)" class="st3 st4 st5">20</text>
<line class="st2" x1="918.3" y1="492" x2="918.3" y2="384.7"/>
<polyline class="st6" points="918.3,438.3 924,438.3 929.6,438.4 935.3,438.7 940.9,438.4 946.6,436.5 952.2,434 957.9,429.7 
	963.5,426.8 969.2,425 974.8,423.8 980.5,421.5 986.1,421.3 991.8,420.9 997.4,421.5 1003.1,420.7 1008.7,422.2 1014.4,421.8 
	1020,422.2 1025.7,422.4 "/>
<polyline class="st7" points="918.3,438.3 924,441 929.6,460.8 935.3,472.7 940.9,476.6 946.6,476.1 952.2,471.7 957.9,466.7 
	963.5,462.4 969.2,458.5 974.8,454.4 980.5,451.9 986.1,450 991.8,448 997.4,446.9 1003.1,446 1008.7,444.8 1014.4,444.2 
	1020,443.2 1025.7,442.9 "/>
<polyline class="st8" points="918.3,438.3 924,440.1 929.6,458.3 935.3,470.7 940.9,475.2 946.6,474.8 952.2,470.7 957.9,466 
	963.5,461.7 969.2,458 974.8,453.9 980.5,451.4 986.1,449.5 991.8,447.5 997.4,446.3 1003.1,445.7 1008.7,444.4 1014.4,443.9 
	1020,442.9 1025.7,442.5 "/>
<polyline class="st9" points="918.3,438.3 924,438.3 929.6,438.3 935.3,439.6 940.9,443.4 946.6,445.3 952.2,445.3 957.9,443.5 
	963.5,442.5 969.2,440.8 974.8,438.7 980.5,436.7 986.1,436 991.8,435.7 997.4,435.1 1003.1,435.1 1008.7,434.4 1014.4,434.5 
	1020,434.6 1025.7,434.4 "/>
<polyline class="st10" points="918.3,438.3 924,438.3 929.6,438.3 935.3,439.1 940.9,443.5 946.6,449.3 952.2,451.1 957.9,452.1 
	963.5,450.7 969.2,450.1 974.8,448.1 980.5,446.4 986.1,444.8 991.8,444 997.4,443.6 1003.1,443.5 1008.7,441.8 1014.4,441.6 
	1020,441.2 1025.7,441 "/>
<polyline class="st11" points="918.3,482.2 924,483 929.6,483.3 935.3,483.8 940.9,483 946.6,479 952.2,473.8 957.9,467.9 
	963.5,462.7 969.2,459.2 974.8,454.3 980.5,451.4 986.1,449.3 991.8,446.9 997.4,446.1 1003.1,444.9 1008.7,444 1014.4,443.3 
	1020,442.4 1025.7,441.8 "/>
<polyline class="st12" points="918.3,482.2 924,482.9 929.6,483.4 935.3,483.8 940.9,482.9 946.6,479 952.2,473.8 957.9,468 
	963.5,462.9 969.2,459.2 974.8,454.3 980.5,451.5 986.1,449.5 991.8,447 997.4,445.9 1003.1,445.2 1008.7,444 1014.4,443.3 
	1020,442.4 1025.7,441.8 "/>
<polyline class="st13" points="918.3,438.3 924,438.3 929.6,438.3 935.3,438.3 940.9,438.3 946.6,438.3 952.2,438.3 957.9,438.3 
	963.5,438.3 969.2,438.3 974.8,438.3 980.5,438.3 986.1,438.3 991.8,438.3 997.4,438.3 1003.1,438.3 1008.7,438.3 1014.4,438.3 
	1020,438.3 1025.7,438.3 "/>
<text transform="matrix(1 0 0 1 918.333 375.9668)" class="st14 st5">15. Two Parabolas</text>
<rect x="168" y="536" class="st1" width="106.7" height="106.7"/>
<line class="st2" x1="168" y1="642.7" x2="274.7" y2="642.7"/>
<line class="st2" x1="168" y1="642.7" x2="168" y2="641.6"/>
<line class="st2" x1="274.7" y1="642.7" x2="274.7" y2="641.6"/>
<text transform="matrix(1 0 0 1 164 662.8008)" class="st3 st4 st5">1</text>
<text transform="matrix(1 0 0 1 266.667 662.8008)" class="st3 st4 st5">20</text>
<line class="st2" x1="168" y1="642.7" x2="168" y2="536"/>
<polyline class="st6" points="168,642.7 173.6,632.6 179.2,630.7 184.8,628.2 190.5,625.7 196.1,623.4 201.7,621.7 207.3,619.9 
	212.9,618.3 218.5,616.3 224.1,615.2 229.8,614.6 235.4,613.8 241,612.2 246.6,611.7 252.2,611.2 257.8,610.2 263.4,609.8 
	269.1,609.7 274.7,608.6 "/>
<polyline class="st7" points="168,599.7 173.6,628.2 179.2,626.7 184.8,624.6 190.5,622.2 196.1,620.3 201.7,618.6 207.3,616.9 
	212.9,615.6 218.5,613.5 224.1,612.5 229.8,611.6 235.4,611.1 241,609.5 246.6,609.2 252.2,608.6 257.8,607.8 263.4,607.1 
	269.1,607 274.7,606 "/>
<polyline class="st8" points="168,600.5 173.6,628.5 179.2,627.1 184.8,624.9 190.5,622.4 196.1,620.6 201.7,618.8 207.3,617 
	212.9,615.7 218.5,613.7 224.1,612.6 229.8,611.8 235.4,611.2 241,609.6 246.6,609.3 252.2,608.8 257.8,607.9 263.4,607.2 
	269.1,607.1 274.7,606.2 "/>
<polyline class="st9" points="168,589.3 173.6,583.7 179.2,582.6 184.8,581.9 190.5,581.3 196.1,580.3 201.7,580.8 207.3,580.5 
	212.9,581.5 218.5,580.9 224.1,581.1 229.8,582.2 235.4,581.2 241,581.8 246.6,581.9 252.2,583.5 257.8,583.7 263.4,583.6 
	269.1,585 274.7,584.5 "/>
<polyline class="st10" points="168,589.3 173.6,602 179.2,609.2 184.8,611.6 190.5,611.3 196.1,612 201.7,611.5 207.3,610.7 
	212.9,610.9 218.5,608.7 224.1,608.8 229.8,607.9 235.4,607.8 241,606.8 246.6,606.7 252.2,606.5 257.8,605.6 263.4,605.1 
	269.1,605.1 274.7,604 "/>
<polyline class="st11" points="168,642.3 173.6,631.9 179.2,630 184.8,627.3 190.5,624.8 196.1,622.6 201.7,620.6 207.3,618.8 
	212.9,617.3 218.5,615.3 224.1,614.2 229.8,613.3 235.4,612.5 241,610.9 246.6,610.7 252.2,610 257.8,609 263.4,608.4 269.1,608.5 
	274.7,607.2 "/>
<polyline class="st12" points="168,642.3 173.6,631.9 179.2,630 184.8,627.3 190.5,624.8 196.1,622.6 201.7,620.6 207.3,618.8 
	212.9,617.3 218.5,615.3 224.1,614.1 229.8,613.3 235.4,612.5 241,610.9 246.6,610.5 252.2,609.8 257.8,609 263.4,608.4 
	269.1,608.4 274.7,607.1 "/>
<polyline class="st13" points="168,589.3 173.6,589.3 179.2,589.3 184.8,589.3 190.5,589.3 196.1,589.3 201.7,589.3 207.3,589.3 
	212.9,589.3 218.5,589.3 224.1,589.3 229.8,589.3 235.4,589.3 241,589.3 246.6,589.3 252.2,589.3 257.8,589.3 263.4,589.3 
	269.1,589.3 274.7,589.3 "/>
<text transform="matrix(1 0 0 1 168 527.334)" class="st14 st5">16. Circle</text>
<rect x="355.3" y="536" class="st1" width="106.7" height="106.7"/>
<line class="st2" x1="355.3" y1="642.7" x2="462" y2="642.7"/>
<line class="st2" x1="355.3" y1="642.7" x2="355.3" y2="641.6"/>
<line class="st2" x1="462" y1="642.7" x2="462" y2="641.6"/>
<text transform="matrix(1 0 0 1 351.333 662.8008)" class="st3 st4 st5">1</text>
<text transform="matrix(1 0 0 1 454 662.8008)" class="st3 st4 st5">20</text>
<line class="st2" x1="355.3" y1="642.7" x2="355.3" y2="536"/>
<polyline class="st6" points="355.3,642.7 360.9,632.7 366.6,631 372.2,628.1 377.8,625.2 383.4,623.1 389,621.6 394.6,619.7 
	400.2,618.5 405.9,616.8 411.5,615.7 417.1,614.4 422.7,613.5 428.3,612.5 433.9,612 439.5,611.4 445.2,610.5 450.8,609.9 
	456.4,609.5 462,608.6 "/>
<polyline class="st7" points="355.3,597.6 360.9,628.2 366.6,626.6 372.2,624.5 377.8,622 383.4,619.9 389,618.3 394.6,616.2 
	400.2,615.3 405.9,614.1 411.5,612.6 417.1,611.5 422.7,610.4 428.3,609.9 433.9,609.3 439.5,608.3 445.2,608 450.8,607.4 
	456.4,607 462,606.1 "/>
<polyline class="st8" points="355.3,598.5 360.9,628.5 366.6,626.8 372.2,624.8 377.8,622.2 383.4,620.1 389,618.5 394.6,616.4 
	400.2,615.4 405.9,614.3 411.5,612.8 417.1,611.7 422.7,610.7 428.3,610.1 433.9,609.4 439.5,608.5 445.2,608.1 450.8,607.5 
	456.4,607.2 462,606.2 "/>
<polyline class="st9" points="355.3,589.3 360.9,583.6 366.6,582.5 372.2,581.9 377.8,580.6 383.4,580.5 389,579.7 394.6,580.2 
	400.2,581.2 405.9,580.5 411.5,580.9 417.1,581.3 422.7,581.9 428.3,582.1 433.9,582.6 439.5,583.3 445.2,582.4 450.8,584.7 
	456.4,584 462,584.9 "/>
<polyline class="st10" points="355.3,589.3 360.9,601.9 366.6,607.6 372.2,611.3 377.8,610.9 383.4,611.6 389,611.1 394.6,610.1 
	400.2,609.7 405.9,609.1 411.5,609 417.1,608.2 422.7,607.3 428.3,607.1 433.9,606.8 439.5,606 445.2,605.6 450.8,605.3 
	456.4,605.2 462,604.5 "/>
<polyline class="st11" points="355.3,642.4 360.9,632 366.6,630.2 372.2,627.2 377.8,624.3 383.4,622.1 389,620.5 394.6,618.4 
	400.2,617.2 405.9,615.8 411.5,614.6 417.1,613.1 422.7,612.3 428.3,611.3 433.9,610.8 439.5,609.9 445.2,609.4 450.8,608.6 
	456.4,608.2 462,607.3 "/>
<polyline class="st12" points="355.3,642.4 360.9,632 366.6,630.2 372.2,627.1 377.8,624.3 383.4,622.2 389,620.5 394.6,618.4 
	400.2,617.2 405.9,615.7 411.5,614.5 417.1,613.1 422.7,612.2 428.3,611.3 433.9,610.8 439.5,609.9 445.2,609.3 450.8,608.6 
	456.4,608.2 462,607.2 "/>
<polyline class="st13" points="355.3,589.3 360.9,589.3 366.6,589.3 372.2,589.3 377.8,589.3 383.4,589.3 389,589.3 394.6,589.3 
	400.2,589.3 405.9,589.3 411.5,589.3 417.1,589.3 422.7,589.3 428.3,589.3 433.9,589.3 439.5,589.3 445.2,589.3 450.8,589.3 
	456.4,589.3 462,589.3 "/>
<text transform="matrix(1 0 0 1 355.333 527.334)" class="st14 st5">17. Ellipse</text>
<rect x="543.3" y="536" class="st1" width="106.7" height="106.7"/>
<line class="st2" x1="543.3" y1="642.7" x2="650" y2="642.7"/>
<line class="st2" x1="543.3" y1="642.7" x2="543.3" y2="641.6"/>
<line class="st2" x1="650" y1="642.7" x2="650" y2="641.6"/>
<text transform="matrix(1 0 0 1 539.333 662.8008)" class="st3 st4 st5">1</text>
<text transform="matrix(1 0 0 1 642 662.8008)" class="st3 st4 st5">40</text>
<line class="st2" x1="543.3" y1="642.7" x2="543.3" y2="536"/>
<polyline class="st6" points="543.3,639.3 546.1,639 551.5,638.6 557,637.4 562.5,636.1 567.9,634.2 573.4,632.4 578.9,629.8 
	584.4,625.8 589.8,623 595.3,618.6 600.8,615.5 606.2,612.9 611.7,609.5 617.2,607.7 622.6,604.9 628.1,603.6 633.6,601.4 
	639.1,601.2 644.5,599.7 650,598.7 "/>
<polyline class="st7" points="543.3,628.1 546.1,628.5 551.5,630.7 557,631 562.5,631.9 567.9,630.2 573.4,629.2 578.9,626.7 
	584.4,623.2 589.8,620.3 595.3,616.5 600.8,613.4 606.2,610.5 611.7,607.3 617.2,605.2 622.6,602.7 628.1,601.2 633.6,599.1 
	639.1,598.8 644.5,597.4 650,596.7 "/>
<polyline class="st8" points="543.3,629.4 546.1,629.8 551.5,631.7 557,631.8 562.5,632.4 567.9,630.8 573.4,629.7 578.9,627.1 
	584.4,623.6 589.8,620.7 595.3,616.7 600.8,613.6 606.2,610.7 611.7,607.6 617.2,605.5 622.6,602.9 628.1,601.4 633.6,599.4 
	639.1,599 644.5,597.6 650,596.9 "/>
<polyline class="st9" points="543.3,586.7 546.1,586.6 551.5,586.3 557,586.1 562.5,585.7 567.9,585.1 573.4,584.2 578.9,583.9 
	584.4,583.3 589.8,582.8 595.3,581.7 600.8,582.2 606.2,581.8 611.7,582.5 617.2,583.3 622.6,583.7 628.1,584.3 633.6,584.5 
	639.1,585.7 644.5,585.3 650,586.7 "/>
<polyline class="st10" points="543.3,589.4 546.1,589.5 551.5,590.1 557,591.3 562.5,593 567.9,596.1 573.4,597.9 578.9,601.6 
	584.4,604.2 589.8,606.3 595.3,606.2 600.8,605.4 606.2,604.7 611.7,603 617.2,601.6 622.6,600.2 628.1,599 633.6,597.4 
	639.1,597.5 644.5,596.1 650,595.7 "/>
<polyline class="st11" points="543.3,639.2 546.1,638.9 551.5,638.4 557,637.2 562.5,635.9 567.9,634 573.4,632.2 578.9,629.4 
	584.4,625.5 589.8,622.7 595.3,618.2 600.8,615 606.2,612.3 611.7,608.8 617.2,606.9 622.6,604.2 628.1,602.7 633.6,600.4 
	639.1,600.1 644.5,598.6 650,597.7 "/>
<polyline class="st12" points="543.3,639.2 546.1,638.9 551.5,638.4 557,637.2 562.5,635.9 567.9,634 573.4,632.2 578.9,629.4 
	584.4,625.5 589.8,622.7 595.3,618.1 600.8,614.9 606.2,612.2 611.7,608.7 617.2,606.8 622.6,604 628.1,602.6 633.6,600.1 
	639.1,600 644.5,598.3 650,597.4 "/>
<polyline class="st13" points="543.3,589.3 546.1,589.3 551.5,589.3 557,589.3 562.5,589.3 567.9,589.3 573.4,589.3 578.9,589.3 
	584.4,589.3 589.8,589.3 595.3,589.3 600.8,589.3 606.2,589.3 611.7,589.3 617.2,589.3 622.6,589.3 628.1,589.3 633.6,589.3 
	639.1,589.3 644.5,589.3 650,589.3 "/>
<text transform="matrix(1 0 0 1 543.333 527.334)" class="st14 st5">18. Diamond</text>
<rect x="730.7" y="536" class="st1" width="106.7" height="106.7"/>
<line class="st2" x1="730.7" y1="642.7" x2="837.3" y2="642.7"/>
<line class="st2" x1="730.7" y1="642.7" x2="730.7" y2="641.6"/>
<line class="st2" x1="837.3" y1="642.7" x2="837.3" y2="641.6"/>
<text transform="matrix(1 0 0 1 726.667 662.8008)" class="st3 st4 st5">1</text>
<text transform="matrix(1 0 0 1 829.333 662.8008)" class="st3 st4 st5">10</text>
<line class="st2" x1="730.7" y1="642.7" x2="730.7" y2="536"/>
<polyline class="st6" points="730.7,589.2 742.5,588.4 754.4,586.4 766.2,582.9 778.1,579.5 789.9,576 801.8,572.5 813.6,570.3 
	825.5,567.3 837.3,564.9 "/>
<polyline class="st7" points="730.7,597.9 742.5,612.9 754.4,619.7 766.2,620.9 778.1,619.5 789.9,618.2 801.8,615.9 813.6,614.3 
	825.5,612.6 837.3,610.4 "/>
<polyline class="st8" points="730.7,595 742.5,607.7 754.4,614.1 766.2,616 778.1,615.1 789.9,614.1 801.8,611.6 813.6,610 
	825.5,608.5 837.3,606.4 "/>
<polyline class="st9" points="730.7,589.2 742.5,588.4 754.4,586.4 766.2,583 778.1,579.5 789.9,576 801.8,572.5 813.6,570.3 
	825.5,567.3 837.3,564.9 "/>
<polyline class="st10" points="730.7,589.2 742.5,588.4 754.4,586.7 766.2,584 778.1,581.9 789.9,580.2 801.8,578.4 813.6,577.7 
	825.5,576.4 837.3,575.9 "/>
<polyline class="st11" points="730.7,629.5 742.5,626 754.4,623.1 766.2,618.9 778.1,614.7 789.9,611.1 801.8,606.3 813.6,604.3 
	825.5,601.8 837.3,598.9 "/>
<polyline class="st12" points="730.7,629.5 742.5,627 754.4,625.4 766.2,621.9 778.1,618.3 789.9,616 801.8,612.3 813.6,610 
	825.5,608.3 837.3,606.3 "/>
<polyline class="st13" points="730.7,589.3 742.5,589.3 754.4,589.3 766.2,589.3 778.1,589.3 789.9,589.3 801.8,589.3 813.6,589.3 
	825.5,589.3 837.3,589.3 "/>
<text transform="matrix(1 0 0 1 730.667 527.334)" class="st14 st5">19. Multiplicative</text>
<text transform="matrix(1 0 0 1 264 45.667)" class="st4 st15">Testing Power for 20 Simulated High-Dimensional Settings</text>
<rect x="918.7" y="536" class="st1" width="106.7" height="106.7"/>
<line class="st2" x1="918.7" y1="642.7" x2="1025.3" y2="642.7"/>
<line class="st2" x1="918.7" y1="642.7" x2="918.7" y2="641.6"/>
<line class="st2" x1="1025.3" y1="642.7" x2="1025.3" y2="641.6"/>
<text transform="matrix(1 0 0 1 914.667 662.8008)" class="st3 st4 st5">1</text>
<text transform="matrix(1 0 0 1 1013.334 662.8008)" class="st3 st4 st5">100</text>
<text transform="matrix(1 0 0 1 548.1313 699.334)" class="st3 st4 st15">Dimension</text>
<line class="st2" x1="918.7" y1="642.7" x2="918.7" y2="536"/>
<text transform="matrix(-4.312500e-08 -1 1 -4.312500e-08 136.4984 474.9997)" class="st3 st4 st15">Power Relative to MGC</text>
<polyline class="st6" points="918.7,589.2 923,589.1 928.4,589.5 933.8,589.4 939.1,589.5 944.5,589.3 949.9,589.2 955.3,589.3 
	960.7,589 966.1,589.3 971.5,589.2 976.8,589.4 982.2,588.9 987.6,589.1 993,589.2 998.4,588.9 1003.8,589.2 1009.2,589.3 
	1014.6,589.4 1019.9,589.5 1025.3,589.4 "/>
<polyline class="st7" points="918.7,589.3 923,589.2 928.4,589.3 933.8,589.3 939.1,589.3 944.5,589.3 949.9,589.3 955.3,589.3 
	960.7,589.4 966.1,589.4 971.5,589.4 976.8,589.3 982.2,589.4 987.6,589.3 993,589.3 998.4,589.3 1003.8,589.4 1009.2,589.4 
	1014.6,589.4 1019.9,589.3 1025.3,589.4 "/>
<polyline class="st8" points="918.7,589.3 923,589.2 928.4,589.2 933.8,589.3 939.1,589.3 944.5,589.3 949.9,589.3 955.3,589.3 
	960.7,589.4 966.1,589.4 971.5,589.4 976.8,589.3 982.2,589.4 987.6,589.3 993,589.3 998.4,589.3 1003.8,589.4 1009.2,589.4 
	1014.6,589.3 1019.9,589.3 1025.3,589.4 "/>
<polyline class="st9" points="918.7,589.3 923,589.3 928.4,589.3 933.8,589.3 939.1,589.3 944.5,589.2 949.9,589.5 955.3,589.4 
	960.7,589.1 966.1,589.5 971.5,589.1 976.8,589.5 982.2,589.3 987.6,589.5 993,589.3 998.4,589.3 1003.8,589.2 1009.2,589 
	1014.6,589.7 1019.9,589.5 1025.3,589.4 "/>
<polyline class="st10" points="918.7,589.2 923,589.3 928.4,589.4 933.8,589.2 939.1,589.3 944.5,589.2 949.9,589.4 955.3,589.5 
	960.7,589.4 966.1,589.3 971.5,589.3 976.8,589.3 982.2,589.4 987.6,589.3 993,589.3 998.4,589.3 1003.8,589.3 1009.2,589.4 
	1014.6,589.3 1019.9,589.2 1025.3,589.3 "/>
<polyline class="st11" points="918.7,589.3 923,589.3 928.4,589.3 933.8,589.4 939.1,589.3 944.5,589.3 949.9,589.6 955.3,589.4 
	960.7,589.2 966.1,589.4 971.5,589.3 976.8,589 982.2,589.3 987.6,589.3 993,589.3 998.4,589.3 1003.8,589.3 1009.2,589.3 
	1014.6,589.3 1019.9,589.1 1025.3,589.3 "/>
<polyline class="st12" points="918.7,589.3 923,589.4 928.4,589.4 933.8,589.3 939.1,589 944.5,589.5 949.9,589.3 955.3,589.3 
	960.7,589.2 966.1,589.3 971.5,589 976.8,589.2 982.2,589.3 987.6,589.3 993,589.3 998.4,588.9 1003.8,589 1009.2,588.9 
	1014.6,589.7 1019.9,589.1 1025.3,589 "/>
<polyline class="st13" points="918.7,589.3 923,589.3 928.4,589.3 933.8,589.3 939.1,589.3 944.5,589.3 949.9,589.3 955.3,589.3 
	960.7,589.3 966.1,589.3 971.5,589.3 976.8,589.3 982.2,589.3 987.6,589.3 993,589.3 998.4,589.3 1003.8,589.3 1009.2,589.3 
	1014.6,589.3 1019.9,589.3 1025.3,589.3 "/>
<text transform="matrix(1 0 0 1 918.667 527.334)" class="st14 st5">20. Independence</text>
<text transform="matrix(1 0 0 1 63.499 81.3213)" class="st4 st5">MGC</text>
<line class="st13" x1="20.7" y1="75.7" x2="60.5" y2="75.7"/>
<text transform="matrix(1 0 0 1 63.499 99.8008)" class="st4 st5">Dcorr</text>
<line class="st7" x1="20.7" y1="94.1" x2="60.5" y2="94.1"/>
<text transform="matrix(1 0 0 1 63.499 118.2808)" class="st4 st5">Mcorr</text>
<line class="st8" x1="20.7" y1="112.6" x2="60.5" y2="112.6"/>
<text transform="matrix(1 0 0 1 63.499 136.7603)" class="st4 st5">Mantel</text>
<line class="st6" x1="20.7" y1="131.1" x2="60.5" y2="131.1"/>
<text transform="matrix(1 0 0 1 63.499 155.2402)" class="st4 st5">HHG</text>
<line class="st9" x1="20.7" y1="149.6" x2="60.5" y2="149.6"/>
<text transform="matrix(1 0 0 1 63.499 173.7197)" class="st4 st5">HSIC</text>
<line class="st10" x1="20.7" y1="168.1" x2="60.5" y2="168.1"/>
<text transform="matrix(1 0 0 1 63.499 192.1992)" class="st4 st5">RV</text>
<line class="st11" x1="20.7" y1="186.5" x2="60.5" y2="186.5"/>
<text transform="matrix(1 0 0 1 63.499 210.6787)" class="st4 st5">CCA</text>
<line class="st12" x1="20.7" y1="205" x2="60.5" y2="205"/>
</svg>
